<?xml version="1.0" encoding="UTF-8" standalone="no"?>
<!-- Created by diasvg.py -->
<svg width="42.808cm" height="19.523cm" viewBox="2.000 1.628 44.807 21.150"
 xmlns="http://www.w3.org/2000/svg"
 xmlns:xlink="http://www.w3.org/1999/xlink">
<path stroke="none" fill="#A5A585" stroke-width="0.001" d="M 8.000,7.186 L 7.996,7.134 L 7.984,7.082 L 7.965,7.030 L 7.938,6.980 L 7.904,6.929 L 7.862,6.879 L 7.813,6.830 L 7.757,6.781 L 7.693,6.734 L 7.622,6.689 L 7.545,6.644 L 7.463,6.599 L 7.372,6.558 L 7.276,6.517 L 7.174,6.479 L 7.066,6.442 L 6.954,6.408 L 6.836,6.375 L 6.714,6.345 L 6.586,6.316 L 6.456,6.289 L 6.321,6.265 L 6.182,6.242 L 6.042,6.223 L 5.898,6.207 L 5.751,6.193 L 5.604,6.181 L 5.454,6.173 L 5.303,6.165 L 5.152,6.160 L 5.000,6.160 L 5.000,6.160 L 4.848,6.160 L 4.696,6.165 L 4.545,6.173 L 4.395,6.181 L 4.248,6.193 L 4.101,6.207 L 3.958,6.223 L 3.817,6.242 L 3.679,6.265 L 3.543,6.289 L 3.413,6.316 L 3.286,6.345 L 3.164,6.375 L 3.046,6.408 L 2.933,6.442 L 2.825,6.479 L 2.724,6.517 L 2.628,6.558 L 2.537,6.599 L 2.454,6.644 L 2.377,6.689 L 2.306,6.734 L 2.242,6.781 L 2.186,6.830 L 2.137,6.879 L 2.095,6.929 L 2.061,6.980 L 2.034,7.030 L 2.015,7.082 L 2.004,7.134 L 2.000,7.186 L 2.000,7.186 L 2.004,7.238 L 2.015,7.289 L 2.034,7.342 L 2.061,7.392 L 2.095,7.443 L 2.137,7.493 L 2.186,7.542 L 2.242,7.591 L 2.306,7.637 L 2.377,7.683 L 2.454,7.728 L 2.537,7.773 L 2.628,7.814 L 2.724,7.854 L 2.825,7.893 L 2.933,7.930 L 3.046,7.964 L 3.164,7.997 L 3.286,8.027 L 3.413,8.056 L 3.543,8.083 L 3.679,8.107 L 3.817,8.129 L 3.958,8.149 L 4.101,8.165 L 4.248,8.179 L 4.395,8.190 L 4.545,8.199 L 4.696,8.206 L 4.848,8.211 L 5.000,8.212 L 5.000,8.212 L 5.152,8.211 L 5.303,8.206 L 5.454,8.199 L 5.604,8.190 L 5.751,8.179 L 5.898,8.165 L 6.042,8.149 L 6.182,8.129 L 6.321,8.107 L 6.456,8.083 L 6.586,8.056 L 6.714,8.027 L 6.836,7.997 L 6.954,7.964 L 7.066,7.930 L 7.174,7.893 L 7.276,7.854 L 7.372,7.814 L 7.463,7.773 L 7.545,7.728 L 7.622,7.683 L 7.693,7.637 L 7.757,7.591 L 7.813,7.542 L 7.862,7.493 L 7.904,7.443 L 7.938,7.392 L 7.965,7.342 L 7.984,7.289 L 7.996,7.238 L 8.000,7.186 "/>
<path stroke="#494936" fill="none" stroke-width="0.001"  d="M 7.965,7.170 L 7.961,7.117 L 7.950,7.067 L 7.931,7.016 L 7.905,6.966 L 7.870,6.916 L 7.827,6.867 L 7.780,6.818 L 7.723,6.772 L 7.660,6.726 L 7.590,6.680 L 7.513,6.636 L 7.431,6.593 L 7.341,6.552 L 7.247,6.511 L 7.144,6.474 L 7.037,6.438 L 6.924,6.404 L 6.808,6.372 L 6.687,6.342 L 6.561,6.313 L 6.430,6.288 L 6.296,6.264 L 6.158,6.242 L 6.019,6.223 L 5.877,6.207 L 5.730,6.194 L 5.583,6.181 L 5.434,6.173 L 5.285,6.167 L 5.133,6.163 L 4.982,6.160 L 4.982,6.160 L 4.831,6.163 L 4.681,6.167 L 4.530,6.173 L 4.382,6.181 L 4.235,6.194 L 4.089,6.207 L 3.946,6.223 L 3.806,6.242 L 3.669,6.264 L 3.535,6.288 L 3.404,6.313 L 3.278,6.342 L 3.158,6.372 L 3.040,6.404 L 2.927,6.438 L 2.820,6.474 L 2.718,6.511 L 2.624,6.552 L 2.534,6.593 L 2.451,6.636 L 2.375,6.680 L 2.306,6.726 L 2.241,6.772 L 2.185,6.818 L 2.137,6.867 L 2.095,6.916 L 2.061,6.966 L 2.034,7.016 L 2.015,7.067 L 2.004,7.117 L 2.000,7.170 L 2.000,7.170 L 2.004,7.220 L 2.015,7.270 L 2.034,7.322 L 2.061,7.372 L 2.095,7.422 L 2.137,7.471 L 2.185,7.519 L 2.241,7.566 L 2.306,7.612 L 2.375,7.659 L 2.451,7.703 L 2.534,7.745 L 2.624,7.786 L 2.718,7.827 L 2.820,7.864 L 2.927,7.900 L 3.040,7.934 L 3.158,7.967 L 3.278,7.996 L 3.404,8.025 L 3.535,8.051 L 3.669,8.074 L 3.806,8.095 L 3.946,8.114 L 4.089,8.131 L 4.235,8.144 L 4.382,8.157 L 4.530,8.165 L 4.681,8.171 L 4.831,8.176 L 4.982,8.177 L 4.982,8.177 L 5.133,8.176 L 5.285,8.171 L 5.434,8.165 L 5.583,8.157 L 5.730,8.144 L 5.877,8.131 L 6.019,8.114 L 6.158,8.095 L 6.296,8.074 L 6.430,8.051 L 6.561,8.025 L 6.687,7.996 L 6.808,7.967 L 6.924,7.934 L 7.037,7.900 L 7.144,7.864 L 7.247,7.827 L 7.341,7.786 L 7.431,7.745 L 7.513,7.703 L 7.590,7.659 L 7.660,7.612 L 7.723,7.566 L 7.780,7.519 L 7.827,7.471 L 7.870,7.422 L 7.905,7.372 L 7.931,7.322 L 7.950,7.270 L 7.961,7.220 L 7.965,7.170 "/>
<path stroke="none" fill="#A5A585" stroke-width="0.001" d="M 2.000,5.044 L 2.000,7.204 L 7.965,7.204 L 7.965,5.044 L 2.000,5.044 "/>
<path stroke="none" fill="#C9C9B6" stroke-width="0.001" d="M 8.000,5.026 L 7.996,4.972 L 7.984,4.921 L 7.965,4.870 L 7.938,4.819 L 7.904,4.768 L 7.862,4.718 L 7.813,4.668 L 7.757,4.621 L 7.693,4.574 L 7.622,4.527 L 7.545,4.483 L 7.463,4.439 L 7.372,4.397 L 7.276,4.357 L 7.174,4.319 L 7.066,4.281 L 6.954,4.247 L 6.836,4.215 L 6.714,4.184 L 6.586,4.155 L 6.456,4.129 L 6.321,4.105 L 6.182,4.083 L 6.042,4.063 L 5.898,4.047 L 5.751,4.033 L 5.604,4.021 L 5.454,4.012 L 5.303,4.005 L 5.152,4.001 L 5.000,4.000 L 5.000,4.000 L 4.848,4.001 L 4.696,4.005 L 4.545,4.012 L 4.395,4.021 L 4.248,4.033 L 4.101,4.047 L 3.958,4.063 L 3.817,4.083 L 3.679,4.105 L 3.543,4.129 L 3.413,4.155 L 3.286,4.184 L 3.164,4.215 L 3.046,4.247 L 2.933,4.281 L 2.825,4.319 L 2.724,4.357 L 2.628,4.397 L 2.537,4.439 L 2.454,4.483 L 2.377,4.527 L 2.306,4.574 L 2.242,4.621 L 2.186,4.668 L 2.137,4.718 L 2.095,4.768 L 2.061,4.819 L 2.034,4.870 L 2.015,4.921 L 2.004,4.972 L 2.000,5.026 L 2.000,5.026 L 2.004,5.077 L 2.015,5.130 L 2.034,5.180 L 2.061,5.232 L 2.095,5.282 L 2.137,5.333 L 2.186,5.382 L 2.242,5.430 L 2.306,5.477 L 2.377,5.523 L 2.454,5.568 L 2.537,5.611 L 2.628,5.653 L 2.724,5.693 L 2.825,5.733 L 2.933,5.769 L 3.046,5.804 L 3.164,5.837 L 3.286,5.867 L 3.413,5.896 L 3.543,5.923 L 3.679,5.946 L 3.817,5.969 L 3.958,5.987 L 4.101,6.004 L 4.248,6.019 L 4.395,6.029 L 4.545,6.039 L 4.696,6.046 L 4.848,6.050 L 5.000,6.051 L 5.000,6.051 L 5.152,6.050 L 5.303,6.046 L 5.454,6.039 L 5.604,6.029 L 5.751,6.019 L 5.898,6.004 L 6.042,5.987 L 6.182,5.969 L 6.321,5.946 L 6.456,5.923 L 6.586,5.896 L 6.714,5.867 L 6.836,5.837 L 6.954,5.804 L 7.066,5.769 L 7.174,5.733 L 7.276,5.693 L 7.372,5.653 L 7.463,5.611 L 7.545,5.568 L 7.622,5.523 L 7.693,5.477 L 7.757,5.430 L 7.813,5.382 L 7.862,5.333 L 7.904,5.282 L 7.938,5.232 L 7.965,5.180 L 7.984,5.130 L 7.996,5.077 L 8.000,5.026 "/>
<path stroke="#494936" fill="none" stroke-width="0.001"  d="M 7.965,5.009 L 7.961,4.957 L 7.950,4.907 L 7.931,4.857 L 7.905,4.806 L 7.870,4.755 L 7.827,4.706 L 7.780,4.659 L 7.723,4.611 L 7.660,4.565 L 7.590,4.519 L 7.513,4.476 L 7.431,4.433 L 7.341,4.391 L 7.247,4.352 L 7.144,4.314 L 7.037,4.279 L 6.924,4.244 L 6.808,4.211 L 6.687,4.181 L 6.561,4.153 L 6.430,4.128 L 6.296,4.104 L 6.158,4.083 L 6.019,4.063 L 5.877,4.047 L 5.730,4.033 L 5.583,4.021 L 5.434,4.012 L 5.384,4.010 L 4.580,4.010 L 4.530,4.012 L 4.382,4.021 L 4.235,4.033 L 4.089,4.047 L 3.946,4.063 L 3.806,4.083 L 3.669,4.104 L 3.535,4.128 L 3.404,4.153 L 3.278,4.181 L 3.158,4.211 L 3.040,4.244 L 2.927,4.279 L 2.820,4.314 L 2.718,4.352 L 2.624,4.391 L 2.534,4.433 L 2.451,4.476 L 2.375,4.519 L 2.306,4.565 L 2.241,4.611 L 2.185,4.659 L 2.137,4.706 L 2.095,4.755 L 2.061,4.806 L 2.034,4.857 L 2.015,4.907 L 2.004,4.957 L 2.000,5.009 L 2.000,5.009 L 2.004,5.059 L 2.015,5.111 L 2.034,5.162 L 2.061,5.212 L 2.095,5.262 L 2.137,5.311 L 2.185,5.358 L 2.241,5.407 L 2.306,5.452 L 2.375,5.498 L 2.451,5.543 L 2.534,5.584 L 2.624,5.625 L 2.718,5.666 L 2.820,5.704 L 2.927,5.739 L 3.040,5.773 L 3.158,5.806 L 3.278,5.835 L 3.404,5.864 L 3.535,5.891 L 3.669,5.912 L 3.806,5.935 L 3.946,5.953 L 4.089,5.970 L 4.235,5.985 L 4.382,5.996 L 4.530,6.005 L 4.681,6.011 L 4.831,6.014 L 4.982,6.017 L 4.982,6.017 L 5.133,6.014 L 5.285,6.011 L 5.434,6.005 L 5.583,5.996 L 5.730,5.985 L 5.877,5.970 L 6.019,5.953 L 6.158,5.935 L 6.296,5.912 L 6.430,5.891 L 6.561,5.864 L 6.687,5.835 L 6.808,5.806 L 6.924,5.773 L 7.037,5.739 L 7.144,5.704 L 7.247,5.666 L 7.341,5.625 L 7.431,5.584 L 7.513,5.543 L 7.590,5.498 L 7.660,5.452 L 7.723,5.407 L 7.780,5.358 L 7.827,5.311 L 7.870,5.262 L 7.905,5.212 L 7.931,5.162 L 7.950,5.111 L 7.961,5.059 L 7.965,5.009 "/>
<path stroke="#000000" fill="none" stroke-width="0.001"  d="M 2.000,5.009 L 2.000,7.168 "/>
<path stroke="#000000" fill="none" stroke-width="0.001"  d="M 7.965,5.009 L 7.965,7.168 "/>
<path stroke="none" fill="#B7B79D" stroke-width="0.001" d="M 15.000,18.426 L 18.617,18.426 L 18.617,19.095 L 15.000,19.095 L 15.000,18.426 "/>
<path stroke="#494936" fill="none" stroke-width="0.001"  d="M 15.000,18.426 L 18.617,18.426 L 18.617,19.095 L 15.000,19.095 L 15.000,18.426 "/>
<path stroke="none" fill="#C9C9B6" stroke-width="0.001" d="M 15.000,18.426 L 15.383,18.063 L 19.000,18.063 L 18.617,18.426 L 15.000,18.426 "/>
<path stroke="#494936" fill="none" stroke-width="0.001"  d="M 15.000,18.426 L 15.383,18.063 L 19.000,18.063 L 18.617,18.426 L 15.000,18.426 "/>
<path stroke="#000000" fill="none" stroke-width="0.106"  d="M 18.414,18.730 L 17.546,18.730 "/>
<path stroke="none" fill="#7A7A5A" stroke-width="0.001" d="M 18.617,19.095 L 19.000,18.710 L 19.000,18.063 L 18.617,18.426 L 18.617,19.095 "/>
<path stroke="#494936" fill="none" stroke-width="0.001"  d="M 18.617,19.095 L 19.000,18.710 L 19.000,18.063 L 18.617,18.426 L 18.617,19.095 "/>
<path stroke="none" fill="#C9C9B6" stroke-width="0.001" d="M 15.021,19.519 L 15.424,19.013 L 18.213,19.013 L 17.809,19.519 L 15.021,19.519 "/>
<path stroke="#494936" fill="none" stroke-width="0.001"  d="M 15.021,19.519 L 15.424,19.013 L 18.213,19.013 L 17.809,19.519 L 15.021,19.519 "/>
<path stroke="none" fill="#7A7A5A" stroke-width="0.001" d="M 17.809,19.619 L 18.213,19.195 L 18.213,19.013 L 17.809,19.519 L 17.809,19.619 "/>
<path stroke="#494936" fill="none" stroke-width="0.001"  d="M 17.809,19.619 L 18.213,19.195 L 18.213,19.013 L 17.809,19.519 L 17.809,19.619 "/>
<path stroke="none" fill="#B7B79D" stroke-width="0.001" d="M 15.021,19.519 L 17.809,19.519 L 17.809,19.619 L 15.021,19.619 L 15.021,19.519 "/>
<path stroke="#494936" fill="none" stroke-width="0.001"  d="M 15.021,19.519 L 17.809,19.519 L 17.809,19.619 L 15.021,19.619 L 15.021,19.519 "/>
<path stroke="none" fill="#000000" stroke-width="0.001" d="M 15.545,18.346 L 15.849,18.063 L 18.414,18.063 L 18.132,18.346 L 15.545,18.346 "/>
<path stroke="#000000" fill="none" stroke-width="0.001"  d="M 15.545,18.346 L 15.849,18.063 L 18.414,18.063 L 18.132,18.346 L 15.545,18.346 "/>
<path stroke="none" fill="#C9C9B6" stroke-width="0.001" d="M 15.525,16.263 L 15.809,16.000 L 18.375,16.000 L 18.091,16.263 L 15.525,16.263 "/>
<path stroke="#494936" fill="none" stroke-width="0.001"  d="M 15.525,16.263 L 15.809,16.000 L 18.375,16.000 L 18.091,16.263 L 15.525,16.263 "/>
<path stroke="none" fill="#B7B79D" stroke-width="0.001" d="M 15.525,16.263 L 18.112,16.263 L 18.112,18.305 L 15.525,18.305 L 15.525,16.263 "/>
<path stroke="#494936" fill="none" stroke-width="0.001"  d="M 15.525,16.263 L 18.111,16.263 L 18.111,18.304 L 15.525,18.304 L 15.525,16.263 "/>
<path stroke="none" fill="#FFFFFF" stroke-width="0.001" d="M 15.747,16.525 L 17.889,16.525 L 17.889,18.103 L 15.747,18.103 L 15.747,16.525 "/>
<path stroke="#494936" fill="none" stroke-width="0.001"  d="M 15.747,16.525 L 17.889,16.525 L 17.889,18.102 L 15.747,18.102 L 15.747,16.525 "/>
<path stroke="none" fill="#7A7A5A" stroke-width="0.001" d="M 18.091,18.285 L 18.375,18.002 L 18.375,16.000 L 18.091,16.263 L 18.091,18.285 "/>
<path stroke="#494936" fill="none" stroke-width="0.001"  d="M 18.091,18.285 L 18.375,18.002 L 18.375,16.000 L 18.091,16.263 L 18.091,18.285 "/>
<path stroke="none" fill="#A5A585" stroke-width="0.001" d="M 17.000,7.186 L 16.996,7.134 L 16.984,7.082 L 16.965,7.030 L 16.938,6.980 L 16.904,6.929 L 16.862,6.879 L 16.813,6.830 L 16.757,6.781 L 16.693,6.734 L 16.622,6.689 L 16.545,6.644 L 16.463,6.599 L 16.372,6.558 L 16.276,6.517 L 16.174,6.479 L 16.066,6.442 L 15.954,6.408 L 15.836,6.375 L 15.714,6.345 L 15.586,6.316 L 15.456,6.289 L 15.321,6.265 L 15.182,6.242 L 15.042,6.223 L 14.898,6.207 L 14.751,6.193 L 14.604,6.181 L 14.454,6.173 L 14.303,6.165 L 14.152,6.160 L 14.000,6.160 L 14.000,6.160 L 13.848,6.160 L 13.696,6.165 L 13.545,6.173 L 13.395,6.181 L 13.248,6.193 L 13.101,6.207 L 12.958,6.223 L 12.817,6.242 L 12.679,6.265 L 12.543,6.289 L 12.413,6.316 L 12.286,6.345 L 12.164,6.375 L 12.046,6.408 L 11.933,6.442 L 11.825,6.479 L 11.724,6.517 L 11.628,6.558 L 11.537,6.599 L 11.454,6.644 L 11.377,6.689 L 11.306,6.734 L 11.242,6.781 L 11.186,6.830 L 11.137,6.879 L 11.095,6.929 L 11.061,6.980 L 11.034,7.030 L 11.015,7.082 L 11.004,7.134 L 11.000,7.186 L 11.000,7.186 L 11.004,7.238 L 11.015,7.289 L 11.034,7.342 L 11.061,7.392 L 11.095,7.443 L 11.137,7.493 L 11.186,7.542 L 11.242,7.591 L 11.306,7.637 L 11.377,7.683 L 11.454,7.728 L 11.537,7.773 L 11.628,7.814 L 11.724,7.854 L 11.825,7.893 L 11.933,7.930 L 12.046,7.964 L 12.164,7.997 L 12.286,8.027 L 12.413,8.056 L 12.543,8.083 L 12.679,8.107 L 12.817,8.129 L 12.958,8.149 L 13.101,8.165 L 13.248,8.179 L 13.395,8.190 L 13.545,8.199 L 13.696,8.206 L 13.848,8.211 L 14.000,8.212 L 14.000,8.212 L 14.152,8.211 L 14.303,8.206 L 14.454,8.199 L 14.604,8.190 L 14.751,8.179 L 14.898,8.165 L 15.042,8.149 L 15.182,8.129 L 15.321,8.107 L 15.456,8.083 L 15.586,8.056 L 15.714,8.027 L 15.836,7.997 L 15.954,7.964 L 16.066,7.930 L 16.174,7.893 L 16.276,7.854 L 16.372,7.814 L 16.463,7.773 L 16.545,7.728 L 16.622,7.683 L 16.693,7.637 L 16.757,7.591 L 16.813,7.542 L 16.862,7.493 L 16.904,7.443 L 16.938,7.392 L 16.965,7.342 L 16.984,7.289 L 16.996,7.238 L 17.000,7.186 "/>
<path stroke="#494936" fill="none" stroke-width="0.001"  d="M 16.965,7.170 L 16.961,7.117 L 16.950,7.067 L 16.931,7.016 L 16.905,6.966 L 16.870,6.916 L 16.827,6.867 L 16.780,6.818 L 16.723,6.772 L 16.660,6.726 L 16.590,6.680 L 16.513,6.636 L 16.431,6.593 L 16.341,6.552 L 16.247,6.511 L 16.144,6.474 L 16.037,6.438 L 15.924,6.404 L 15.808,6.372 L 15.687,6.342 L 15.561,6.313 L 15.430,6.288 L 15.296,6.264 L 15.158,6.242 L 15.019,6.223 L 14.877,6.207 L 14.730,6.194 L 14.583,6.181 L 14.434,6.173 L 14.285,6.167 L 14.133,6.163 L 13.982,6.160 L 13.982,6.160 L 13.831,6.163 L 13.681,6.167 L 13.530,6.173 L 13.382,6.181 L 13.235,6.194 L 13.089,6.207 L 12.946,6.223 L 12.806,6.242 L 12.669,6.264 L 12.535,6.288 L 12.404,6.313 L 12.278,6.342 L 12.158,6.372 L 12.040,6.404 L 11.927,6.438 L 11.820,6.474 L 11.718,6.511 L 11.624,6.552 L 11.534,6.593 L 11.451,6.636 L 11.375,6.680 L 11.306,6.726 L 11.241,6.772 L 11.185,6.818 L 11.137,6.867 L 11.095,6.916 L 11.061,6.966 L 11.034,7.016 L 11.015,7.067 L 11.004,7.117 L 11.000,7.170 L 11.000,7.170 L 11.004,7.220 L 11.015,7.270 L 11.034,7.322 L 11.061,7.372 L 11.095,7.422 L 11.137,7.471 L 11.185,7.519 L 11.241,7.566 L 11.306,7.612 L 11.375,7.659 L 11.451,7.703 L 11.534,7.745 L 11.624,7.786 L 11.718,7.827 L 11.820,7.864 L 11.927,7.900 L 12.040,7.934 L 12.158,7.967 L 12.278,7.996 L 12.404,8.025 L 12.535,8.051 L 12.669,8.074 L 12.806,8.095 L 12.946,8.114 L 13.089,8.131 L 13.235,8.144 L 13.382,8.157 L 13.530,8.165 L 13.681,8.171 L 13.831,8.176 L 13.982,8.177 L 13.982,8.177 L 14.133,8.176 L 14.285,8.171 L 14.434,8.165 L 14.583,8.157 L 14.730,8.144 L 14.877,8.131 L 15.019,8.114 L 15.158,8.095 L 15.296,8.074 L 15.430,8.051 L 15.561,8.025 L 15.687,7.996 L 15.808,7.967 L 15.924,7.934 L 16.037,7.900 L 16.144,7.864 L 16.247,7.827 L 16.341,7.786 L 16.431,7.745 L 16.513,7.703 L 16.590,7.659 L 16.660,7.612 L 16.723,7.566 L 16.780,7.519 L 16.827,7.471 L 16.870,7.422 L 16.905,7.372 L 16.931,7.322 L 16.950,7.270 L 16.961,7.220 L 16.965,7.170 "/>
<path stroke="none" fill="#A5A585" stroke-width="0.001" d="M 11.000,5.044 L 11.000,7.204 L 16.965,7.204 L 16.965,5.044 L 11.000,5.044 "/>
<path stroke="none" fill="#C9C9B6" stroke-width="0.001" d="M 17.000,5.026 L 16.996,4.972 L 16.984,4.921 L 16.965,4.870 L 16.938,4.819 L 16.904,4.768 L 16.862,4.718 L 16.813,4.668 L 16.757,4.621 L 16.693,4.574 L 16.622,4.527 L 16.545,4.483 L 16.463,4.439 L 16.372,4.397 L 16.276,4.357 L 16.174,4.319 L 16.066,4.281 L 15.954,4.247 L 15.836,4.215 L 15.714,4.184 L 15.586,4.155 L 15.456,4.129 L 15.321,4.105 L 15.182,4.083 L 15.042,4.063 L 14.898,4.047 L 14.751,4.033 L 14.604,4.021 L 14.454,4.012 L 14.303,4.005 L 14.152,4.001 L 14.000,4.000 L 14.000,4.000 L 13.848,4.001 L 13.696,4.005 L 13.545,4.012 L 13.395,4.021 L 13.248,4.033 L 13.101,4.047 L 12.958,4.063 L 12.817,4.083 L 12.679,4.105 L 12.543,4.129 L 12.413,4.155 L 12.286,4.184 L 12.164,4.215 L 12.046,4.247 L 11.933,4.281 L 11.825,4.319 L 11.724,4.357 L 11.628,4.397 L 11.537,4.439 L 11.454,4.483 L 11.377,4.527 L 11.306,4.574 L 11.242,4.621 L 11.186,4.668 L 11.137,4.718 L 11.095,4.768 L 11.061,4.819 L 11.034,4.870 L 11.015,4.921 L 11.004,4.972 L 11.000,5.026 L 11.000,5.026 L 11.004,5.077 L 11.015,5.130 L 11.034,5.180 L 11.061,5.232 L 11.095,5.282 L 11.137,5.333 L 11.186,5.382 L 11.242,5.430 L 11.306,5.477 L 11.377,5.523 L 11.454,5.568 L 11.537,5.611 L 11.628,5.653 L 11.724,5.693 L 11.825,5.733 L 11.933,5.769 L 12.046,5.804 L 12.164,5.837 L 12.286,5.867 L 12.413,5.896 L 12.543,5.923 L 12.679,5.946 L 12.817,5.969 L 12.958,5.987 L 13.101,6.004 L 13.248,6.019 L 13.395,6.029 L 13.545,6.039 L 13.696,6.046 L 13.848,6.050 L 14.000,6.051 L 14.000,6.051 L 14.152,6.050 L 14.303,6.046 L 14.454,6.039 L 14.604,6.029 L 14.751,6.019 L 14.898,6.004 L 15.042,5.987 L 15.182,5.969 L 15.321,5.946 L 15.456,5.923 L 15.586,5.896 L 15.714,5.867 L 15.836,5.837 L 15.954,5.804 L 16.066,5.769 L 16.174,5.733 L 16.276,5.693 L 16.372,5.653 L 16.463,5.611 L 16.545,5.568 L 16.622,5.523 L 16.693,5.477 L 16.757,5.430 L 16.813,5.382 L 16.862,5.333 L 16.904,5.282 L 16.938,5.232 L 16.965,5.180 L 16.984,5.130 L 16.996,5.077 L 17.000,5.026 "/>
<path stroke="#494936" fill="none" stroke-width="0.001"  d="M 16.965,5.009 L 16.961,4.957 L 16.950,4.907 L 16.931,4.857 L 16.905,4.806 L 16.870,4.755 L 16.827,4.706 L 16.780,4.659 L 16.723,4.611 L 16.660,4.565 L 16.590,4.519 L 16.513,4.476 L 16.431,4.433 L 16.341,4.391 L 16.247,4.352 L 16.144,4.314 L 16.037,4.279 L 15.924,4.244 L 15.808,4.211 L 15.687,4.181 L 15.561,4.153 L 15.430,4.128 L 15.296,4.104 L 15.158,4.083 L 15.019,4.063 L 14.877,4.047 L 14.730,4.033 L 14.583,4.021 L 14.434,4.012 L 14.384,4.010 L 13.580,4.010 L 13.530,4.012 L 13.382,4.021 L 13.235,4.033 L 13.089,4.047 L 12.946,4.063 L 12.806,4.083 L 12.669,4.104 L 12.535,4.128 L 12.404,4.153 L 12.278,4.181 L 12.158,4.211 L 12.040,4.244 L 11.927,4.279 L 11.820,4.314 L 11.718,4.352 L 11.624,4.391 L 11.534,4.433 L 11.451,4.476 L 11.375,4.519 L 11.306,4.565 L 11.241,4.611 L 11.185,4.659 L 11.137,4.706 L 11.095,4.755 L 11.061,4.806 L 11.034,4.857 L 11.015,4.907 L 11.004,4.957 L 11.000,5.009 L 11.000,5.009 L 11.004,5.059 L 11.015,5.111 L 11.034,5.162 L 11.061,5.212 L 11.095,5.262 L 11.137,5.311 L 11.185,5.358 L 11.241,5.407 L 11.306,5.452 L 11.375,5.498 L 11.451,5.543 L 11.534,5.584 L 11.624,5.625 L 11.718,5.666 L 11.820,5.704 L 11.927,5.739 L 12.040,5.773 L 12.158,5.806 L 12.278,5.835 L 12.404,5.864 L 12.535,5.891 L 12.669,5.912 L 12.806,5.935 L 12.946,5.953 L 13.089,5.970 L 13.235,5.985 L 13.382,5.996 L 13.530,6.005 L 13.681,6.011 L 13.831,6.014 L 13.982,6.017 L 13.982,6.017 L 14.133,6.014 L 14.285,6.011 L 14.434,6.005 L 14.583,5.996 L 14.730,5.985 L 14.877,5.970 L 15.019,5.953 L 15.158,5.935 L 15.296,5.912 L 15.430,5.891 L 15.561,5.864 L 15.687,5.835 L 15.808,5.806 L 15.924,5.773 L 16.037,5.739 L 16.144,5.704 L 16.247,5.666 L 16.341,5.625 L 16.431,5.584 L 16.513,5.543 L 16.590,5.498 L 16.660,5.452 L 16.723,5.407 L 16.780,5.358 L 16.827,5.311 L 16.870,5.262 L 16.905,5.212 L 16.931,5.162 L 16.950,5.111 L 16.961,5.059 L 16.965,5.009 "/>
<path stroke="#000000" fill="none" stroke-width="0.001"  d="M 11.000,5.009 L 11.000,7.168 "/>
<path stroke="#000000" fill="none" stroke-width="0.001"  d="M 16.965,5.009 L 16.965,7.168 "/>
<path stroke="none" fill="#A5A585" stroke-width="0.001" d="M 26.000,7.186 L 25.996,7.134 L 25.984,7.082 L 25.965,7.030 L 25.938,6.980 L 25.904,6.929 L 25.862,6.879 L 25.813,6.830 L 25.757,6.781 L 25.693,6.734 L 25.622,6.689 L 25.545,6.644 L 25.463,6.599 L 25.372,6.558 L 25.276,6.517 L 25.174,6.479 L 25.066,6.442 L 24.954,6.408 L 24.836,6.375 L 24.714,6.345 L 24.586,6.316 L 24.456,6.289 L 24.321,6.265 L 24.182,6.242 L 24.042,6.223 L 23.898,6.207 L 23.751,6.193 L 23.604,6.181 L 23.454,6.173 L 23.303,6.165 L 23.152,6.160 L 23.000,6.160 L 23.000,6.160 L 22.848,6.160 L 22.696,6.165 L 22.545,6.173 L 22.395,6.181 L 22.248,6.193 L 22.101,6.207 L 21.958,6.223 L 21.817,6.242 L 21.679,6.265 L 21.543,6.289 L 21.413,6.316 L 21.286,6.345 L 21.164,6.375 L 21.046,6.408 L 20.933,6.442 L 20.825,6.479 L 20.724,6.517 L 20.628,6.558 L 20.537,6.599 L 20.454,6.644 L 20.377,6.689 L 20.306,6.734 L 20.242,6.781 L 20.186,6.830 L 20.137,6.879 L 20.095,6.929 L 20.061,6.980 L 20.034,7.030 L 20.015,7.082 L 20.004,7.134 L 20.000,7.186 L 20.000,7.186 L 20.004,7.238 L 20.015,7.289 L 20.034,7.342 L 20.061,7.392 L 20.095,7.443 L 20.137,7.493 L 20.186,7.542 L 20.242,7.591 L 20.306,7.637 L 20.377,7.683 L 20.454,7.728 L 20.537,7.773 L 20.628,7.814 L 20.724,7.854 L 20.825,7.893 L 20.933,7.930 L 21.046,7.964 L 21.164,7.997 L 21.286,8.027 L 21.413,8.056 L 21.543,8.083 L 21.679,8.107 L 21.817,8.129 L 21.958,8.149 L 22.101,8.165 L 22.248,8.179 L 22.395,8.190 L 22.545,8.199 L 22.696,8.206 L 22.848,8.211 L 23.000,8.212 L 23.000,8.212 L 23.152,8.211 L 23.303,8.206 L 23.454,8.199 L 23.604,8.190 L 23.751,8.179 L 23.898,8.165 L 24.042,8.149 L 24.182,8.129 L 24.321,8.107 L 24.456,8.083 L 24.586,8.056 L 24.714,8.027 L 24.836,7.997 L 24.954,7.964 L 25.066,7.930 L 25.174,7.893 L 25.276,7.854 L 25.372,7.814 L 25.463,7.773 L 25.545,7.728 L 25.622,7.683 L 25.693,7.637 L 25.757,7.591 L 25.813,7.542 L 25.862,7.493 L 25.904,7.443 L 25.938,7.392 L 25.965,7.342 L 25.984,7.289 L 25.996,7.238 L 26.000,7.186 "/>
<path stroke="#494936" fill="none" stroke-width="0.001"  d="M 25.965,7.170 L 25.961,7.117 L 25.950,7.067 L 25.931,7.016 L 25.905,6.966 L 25.870,6.916 L 25.827,6.867 L 25.780,6.818 L 25.723,6.772 L 25.660,6.726 L 25.590,6.680 L 25.513,6.636 L 25.431,6.593 L 25.341,6.552 L 25.247,6.511 L 25.144,6.474 L 25.037,6.438 L 24.924,6.404 L 24.808,6.372 L 24.687,6.342 L 24.561,6.313 L 24.430,6.288 L 24.296,6.264 L 24.158,6.242 L 24.019,6.223 L 23.877,6.207 L 23.730,6.194 L 23.583,6.181 L 23.434,6.173 L 23.285,6.167 L 23.133,6.163 L 22.982,6.160 L 22.982,6.160 L 22.831,6.163 L 22.681,6.167 L 22.530,6.173 L 22.382,6.181 L 22.235,6.194 L 22.089,6.207 L 21.946,6.223 L 21.806,6.242 L 21.669,6.264 L 21.535,6.288 L 21.404,6.313 L 21.278,6.342 L 21.158,6.372 L 21.040,6.404 L 20.927,6.438 L 20.820,6.474 L 20.718,6.511 L 20.624,6.552 L 20.534,6.593 L 20.451,6.636 L 20.375,6.680 L 20.306,6.726 L 20.241,6.772 L 20.185,6.818 L 20.137,6.867 L 20.095,6.916 L 20.061,6.966 L 20.034,7.016 L 20.015,7.067 L 20.004,7.117 L 20.000,7.170 L 20.000,7.170 L 20.004,7.220 L 20.015,7.270 L 20.034,7.322 L 20.061,7.372 L 20.095,7.422 L 20.137,7.471 L 20.185,7.519 L 20.241,7.566 L 20.306,7.612 L 20.375,7.659 L 20.451,7.703 L 20.534,7.745 L 20.624,7.786 L 20.718,7.827 L 20.820,7.864 L 20.927,7.900 L 21.040,7.934 L 21.158,7.967 L 21.278,7.996 L 21.404,8.025 L 21.535,8.051 L 21.669,8.074 L 21.806,8.095 L 21.946,8.114 L 22.089,8.131 L 22.235,8.144 L 22.382,8.157 L 22.530,8.165 L 22.681,8.171 L 22.831,8.176 L 22.982,8.177 L 22.982,8.177 L 23.133,8.176 L 23.285,8.171 L 23.434,8.165 L 23.583,8.157 L 23.730,8.144 L 23.877,8.131 L 24.019,8.114 L 24.158,8.095 L 24.296,8.074 L 24.430,8.051 L 24.561,8.025 L 24.687,7.996 L 24.808,7.967 L 24.924,7.934 L 25.037,7.900 L 25.144,7.864 L 25.247,7.827 L 25.341,7.786 L 25.431,7.745 L 25.513,7.703 L 25.590,7.659 L 25.660,7.612 L 25.723,7.566 L 25.780,7.519 L 25.827,7.471 L 25.870,7.422 L 25.905,7.372 L 25.931,7.322 L 25.950,7.270 L 25.961,7.220 L 25.965,7.170 "/>
<path stroke="none" fill="#A5A585" stroke-width="0.001" d="M 20.000,5.044 L 20.000,7.204 L 25.965,7.204 L 25.965,5.044 L 20.000,5.044 "/>
<path stroke="none" fill="#C9C9B6" stroke-width="0.001" d="M 26.000,5.026 L 25.996,4.972 L 25.984,4.921 L 25.965,4.870 L 25.938,4.819 L 25.904,4.768 L 25.862,4.718 L 25.813,4.668 L 25.757,4.621 L 25.693,4.574 L 25.622,4.527 L 25.545,4.483 L 25.463,4.439 L 25.372,4.397 L 25.276,4.357 L 25.174,4.319 L 25.066,4.281 L 24.954,4.247 L 24.836,4.215 L 24.714,4.184 L 24.586,4.155 L 24.456,4.129 L 24.321,4.105 L 24.182,4.083 L 24.042,4.063 L 23.898,4.047 L 23.751,4.033 L 23.604,4.021 L 23.454,4.012 L 23.303,4.005 L 23.152,4.001 L 23.000,4.000 L 23.000,4.000 L 22.848,4.001 L 22.696,4.005 L 22.545,4.012 L 22.395,4.021 L 22.248,4.033 L 22.101,4.047 L 21.958,4.063 L 21.817,4.083 L 21.679,4.105 L 21.543,4.129 L 21.413,4.155 L 21.286,4.184 L 21.164,4.215 L 21.046,4.247 L 20.933,4.281 L 20.825,4.319 L 20.724,4.357 L 20.628,4.397 L 20.537,4.439 L 20.454,4.483 L 20.377,4.527 L 20.306,4.574 L 20.242,4.621 L 20.186,4.668 L 20.137,4.718 L 20.095,4.768 L 20.061,4.819 L 20.034,4.870 L 20.015,4.921 L 20.004,4.972 L 20.000,5.026 L 20.000,5.026 L 20.004,5.077 L 20.015,5.130 L 20.034,5.180 L 20.061,5.232 L 20.095,5.282 L 20.137,5.333 L 20.186,5.382 L 20.242,5.430 L 20.306,5.477 L 20.377,5.523 L 20.454,5.568 L 20.537,5.611 L 20.628,5.653 L 20.724,5.693 L 20.825,5.733 L 20.933,5.769 L 21.046,5.804 L 21.164,5.837 L 21.286,5.867 L 21.413,5.896 L 21.543,5.923 L 21.679,5.946 L 21.817,5.969 L 21.958,5.987 L 22.101,6.004 L 22.248,6.019 L 22.395,6.029 L 22.545,6.039 L 22.696,6.046 L 22.848,6.050 L 23.000,6.051 L 23.000,6.051 L 23.152,6.050 L 23.303,6.046 L 23.454,6.039 L 23.604,6.029 L 23.751,6.019 L 23.898,6.004 L 24.042,5.987 L 24.182,5.969 L 24.321,5.946 L 24.456,5.923 L 24.586,5.896 L 24.714,5.867 L 24.836,5.837 L 24.954,5.804 L 25.066,5.769 L 25.174,5.733 L 25.276,5.693 L 25.372,5.653 L 25.463,5.611 L 25.545,5.568 L 25.622,5.523 L 25.693,5.477 L 25.757,5.430 L 25.813,5.382 L 25.862,5.333 L 25.904,5.282 L 25.938,5.232 L 25.965,5.180 L 25.984,5.130 L 25.996,5.077 L 26.000,5.026 "/>
<path stroke="#494936" fill="none" stroke-width="0.001"  d="M 25.965,5.009 L 25.961,4.957 L 25.950,4.907 L 25.931,4.857 L 25.905,4.806 L 25.870,4.755 L 25.827,4.706 L 25.780,4.659 L 25.723,4.611 L 25.660,4.565 L 25.590,4.519 L 25.513,4.476 L 25.431,4.433 L 25.341,4.391 L 25.247,4.352 L 25.144,4.314 L 25.037,4.279 L 24.924,4.244 L 24.808,4.211 L 24.687,4.181 L 24.561,4.153 L 24.430,4.128 L 24.296,4.104 L 24.158,4.083 L 24.019,4.063 L 23.877,4.047 L 23.730,4.033 L 23.583,4.021 L 23.434,4.012 L 23.384,4.010 L 22.580,4.010 L 22.530,4.012 L 22.382,4.021 L 22.235,4.033 L 22.089,4.047 L 21.946,4.063 L 21.806,4.083 L 21.669,4.104 L 21.535,4.128 L 21.404,4.153 L 21.278,4.181 L 21.158,4.211 L 21.040,4.244 L 20.927,4.279 L 20.820,4.314 L 20.718,4.352 L 20.624,4.391 L 20.534,4.433 L 20.451,4.476 L 20.375,4.519 L 20.306,4.565 L 20.241,4.611 L 20.185,4.659 L 20.137,4.706 L 20.095,4.755 L 20.061,4.806 L 20.034,4.857 L 20.015,4.907 L 20.004,4.957 L 20.000,5.009 L 20.000,5.009 L 20.004,5.059 L 20.015,5.111 L 20.034,5.162 L 20.061,5.212 L 20.095,5.262 L 20.137,5.311 L 20.185,5.358 L 20.241,5.407 L 20.306,5.452 L 20.375,5.498 L 20.451,5.543 L 20.534,5.584 L 20.624,5.625 L 20.718,5.666 L 20.820,5.704 L 20.927,5.739 L 21.040,5.773 L 21.158,5.806 L 21.278,5.835 L 21.404,5.864 L 21.535,5.891 L 21.669,5.912 L 21.806,5.935 L 21.946,5.953 L 22.089,5.970 L 22.235,5.985 L 22.382,5.996 L 22.530,6.005 L 22.681,6.011 L 22.831,6.014 L 22.982,6.017 L 22.982,6.017 L 23.133,6.014 L 23.285,6.011 L 23.434,6.005 L 23.583,5.996 L 23.730,5.985 L 23.877,5.970 L 24.019,5.953 L 24.158,5.935 L 24.296,5.912 L 24.430,5.891 L 24.561,5.864 L 24.687,5.835 L 24.808,5.806 L 24.924,5.773 L 25.037,5.739 L 25.144,5.704 L 25.247,5.666 L 25.341,5.625 L 25.431,5.584 L 25.513,5.543 L 25.590,5.498 L 25.660,5.452 L 25.723,5.407 L 25.780,5.358 L 25.827,5.311 L 25.870,5.262 L 25.905,5.212 L 25.931,5.162 L 25.950,5.111 L 25.961,5.059 L 25.965,5.009 "/>
<path stroke="#000000" fill="none" stroke-width="0.001"  d="M 20.000,5.009 L 20.000,7.168 "/>
<path stroke="#000000" fill="none" stroke-width="0.001"  d="M 25.965,5.009 L 25.965,7.168 "/>
<text x="17.000" y="21.000"  fill="#000000" text-anchor="middle" font-size="0.80" font-family="sans" font-style="normal" font-weight="400">
workstation-1.organization-1.edu.ee</text>
<path stroke="none" fill="#A5A585" stroke-width="0.001" d="M 35.000,7.186 L 34.996,7.134 L 34.984,7.082 L 34.965,7.030 L 34.938,6.980 L 34.904,6.929 L 34.862,6.879 L 34.813,6.830 L 34.757,6.781 L 34.693,6.734 L 34.622,6.689 L 34.545,6.644 L 34.463,6.599 L 34.372,6.558 L 34.276,6.517 L 34.174,6.479 L 34.066,6.442 L 33.954,6.408 L 33.836,6.375 L 33.714,6.345 L 33.586,6.316 L 33.456,6.289 L 33.321,6.265 L 33.182,6.242 L 33.042,6.223 L 32.898,6.207 L 32.751,6.193 L 32.604,6.181 L 32.454,6.173 L 32.303,6.165 L 32.152,6.160 L 32.000,6.160 L 32.000,6.160 L 31.848,6.160 L 31.696,6.165 L 31.545,6.173 L 31.395,6.181 L 31.248,6.193 L 31.101,6.207 L 30.958,6.223 L 30.817,6.242 L 30.679,6.265 L 30.543,6.289 L 30.413,6.316 L 30.286,6.345 L 30.164,6.375 L 30.046,6.408 L 29.933,6.442 L 29.825,6.479 L 29.724,6.517 L 29.628,6.558 L 29.537,6.599 L 29.454,6.644 L 29.377,6.689 L 29.306,6.734 L 29.242,6.781 L 29.186,6.830 L 29.137,6.879 L 29.095,6.929 L 29.061,6.980 L 29.034,7.030 L 29.015,7.082 L 29.004,7.134 L 29.000,7.186 L 29.000,7.186 L 29.004,7.238 L 29.015,7.289 L 29.034,7.342 L 29.061,7.392 L 29.095,7.443 L 29.137,7.493 L 29.186,7.542 L 29.242,7.591 L 29.306,7.637 L 29.377,7.683 L 29.454,7.728 L 29.537,7.773 L 29.628,7.814 L 29.724,7.854 L 29.825,7.893 L 29.933,7.930 L 30.046,7.964 L 30.164,7.997 L 30.286,8.027 L 30.413,8.056 L 30.543,8.083 L 30.679,8.107 L 30.817,8.129 L 30.958,8.149 L 31.101,8.165 L 31.248,8.179 L 31.395,8.190 L 31.545,8.199 L 31.696,8.206 L 31.848,8.211 L 32.000,8.212 L 32.000,8.212 L 32.152,8.211 L 32.303,8.206 L 32.454,8.199 L 32.604,8.190 L 32.751,8.179 L 32.898,8.165 L 33.042,8.149 L 33.182,8.129 L 33.321,8.107 L 33.456,8.083 L 33.586,8.056 L 33.714,8.027 L 33.836,7.997 L 33.954,7.964 L 34.066,7.930 L 34.174,7.893 L 34.276,7.854 L 34.372,7.814 L 34.463,7.773 L 34.545,7.728 L 34.622,7.683 L 34.693,7.637 L 34.757,7.591 L 34.813,7.542 L 34.862,7.493 L 34.904,7.443 L 34.938,7.392 L 34.965,7.342 L 34.984,7.289 L 34.996,7.238 L 35.000,7.186 "/>
<path stroke="#494936" fill="none" stroke-width="0.001"  d="M 34.965,7.170 L 34.961,7.117 L 34.950,7.067 L 34.931,7.016 L 34.905,6.966 L 34.870,6.916 L 34.827,6.867 L 34.780,6.818 L 34.723,6.772 L 34.660,6.726 L 34.590,6.680 L 34.513,6.636 L 34.431,6.593 L 34.341,6.552 L 34.247,6.511 L 34.144,6.474 L 34.037,6.438 L 33.924,6.404 L 33.808,6.372 L 33.687,6.342 L 33.561,6.313 L 33.430,6.288 L 33.296,6.264 L 33.158,6.242 L 33.019,6.223 L 32.877,6.207 L 32.730,6.194 L 32.583,6.181 L 32.434,6.173 L 32.285,6.167 L 32.133,6.163 L 31.982,6.160 L 31.982,6.160 L 31.831,6.163 L 31.681,6.167 L 31.530,6.173 L 31.382,6.181 L 31.235,6.194 L 31.089,6.207 L 30.946,6.223 L 30.806,6.242 L 30.669,6.264 L 30.535,6.288 L 30.404,6.313 L 30.278,6.342 L 30.158,6.372 L 30.040,6.404 L 29.927,6.438 L 29.820,6.474 L 29.718,6.511 L 29.624,6.552 L 29.534,6.593 L 29.451,6.636 L 29.375,6.680 L 29.306,6.726 L 29.241,6.772 L 29.185,6.818 L 29.137,6.867 L 29.095,6.916 L 29.061,6.966 L 29.034,7.016 L 29.015,7.067 L 29.004,7.117 L 29.000,7.170 L 29.000,7.170 L 29.004,7.220 L 29.015,7.270 L 29.034,7.322 L 29.061,7.372 L 29.095,7.422 L 29.137,7.471 L 29.185,7.519 L 29.241,7.566 L 29.306,7.612 L 29.375,7.659 L 29.451,7.703 L 29.534,7.745 L 29.624,7.786 L 29.718,7.827 L 29.820,7.864 L 29.927,7.900 L 30.040,7.934 L 30.158,7.967 L 30.278,7.996 L 30.404,8.025 L 30.535,8.051 L 30.669,8.074 L 30.806,8.095 L 30.946,8.114 L 31.089,8.131 L 31.235,8.144 L 31.382,8.157 L 31.530,8.165 L 31.681,8.171 L 31.831,8.176 L 31.982,8.177 L 31.982,8.177 L 32.133,8.176 L 32.285,8.171 L 32.434,8.165 L 32.583,8.157 L 32.730,8.144 L 32.877,8.131 L 33.019,8.114 L 33.158,8.095 L 33.296,8.074 L 33.430,8.051 L 33.561,8.025 L 33.687,7.996 L 33.808,7.967 L 33.924,7.934 L 34.037,7.900 L 34.144,7.864 L 34.247,7.827 L 34.341,7.786 L 34.431,7.745 L 34.513,7.703 L 34.590,7.659 L 34.660,7.612 L 34.723,7.566 L 34.780,7.519 L 34.827,7.471 L 34.870,7.422 L 34.905,7.372 L 34.931,7.322 L 34.950,7.270 L 34.961,7.220 L 34.965,7.170 "/>
<path stroke="none" fill="#A5A585" stroke-width="0.001" d="M 29.000,5.044 L 29.000,7.204 L 34.965,7.204 L 34.965,5.044 L 29.000,5.044 "/>
<path stroke="none" fill="#C9C9B6" stroke-width="0.001" d="M 35.000,5.026 L 34.996,4.972 L 34.984,4.921 L 34.965,4.870 L 34.938,4.819 L 34.904,4.768 L 34.862,4.718 L 34.813,4.668 L 34.757,4.621 L 34.693,4.574 L 34.622,4.527 L 34.545,4.483 L 34.463,4.439 L 34.372,4.397 L 34.276,4.357 L 34.174,4.319 L 34.066,4.281 L 33.954,4.247 L 33.836,4.215 L 33.714,4.184 L 33.586,4.155 L 33.456,4.129 L 33.321,4.105 L 33.182,4.083 L 33.042,4.063 L 32.898,4.047 L 32.751,4.033 L 32.604,4.021 L 32.454,4.012 L 32.303,4.005 L 32.152,4.001 L 32.000,4.000 L 32.000,4.000 L 31.848,4.001 L 31.696,4.005 L 31.545,4.012 L 31.395,4.021 L 31.248,4.033 L 31.101,4.047 L 30.958,4.063 L 30.817,4.083 L 30.679,4.105 L 30.543,4.129 L 30.413,4.155 L 30.286,4.184 L 30.164,4.215 L 30.046,4.247 L 29.933,4.281 L 29.825,4.319 L 29.724,4.357 L 29.628,4.397 L 29.537,4.439 L 29.454,4.483 L 29.377,4.527 L 29.306,4.574 L 29.242,4.621 L 29.186,4.668 L 29.137,4.718 L 29.095,4.768 L 29.061,4.819 L 29.034,4.870 L 29.015,4.921 L 29.004,4.972 L 29.000,5.026 L 29.000,5.026 L 29.004,5.077 L 29.015,5.130 L 29.034,5.180 L 29.061,5.232 L 29.095,5.282 L 29.137,5.333 L 29.186,5.382 L 29.242,5.430 L 29.306,5.477 L 29.377,5.523 L 29.454,5.568 L 29.537,5.611 L 29.628,5.653 L 29.724,5.693 L 29.825,5.733 L 29.933,5.769 L 30.046,5.804 L 30.164,5.837 L 30.286,5.867 L 30.413,5.896 L 30.543,5.923 L 30.679,5.946 L 30.817,5.969 L 30.958,5.987 L 31.101,6.004 L 31.248,6.019 L 31.395,6.029 L 31.545,6.039 L 31.696,6.046 L 31.848,6.050 L 32.000,6.051 L 32.000,6.051 L 32.152,6.050 L 32.303,6.046 L 32.454,6.039 L 32.604,6.029 L 32.751,6.019 L 32.898,6.004 L 33.042,5.987 L 33.182,5.969 L 33.321,5.946 L 33.456,5.923 L 33.586,5.896 L 33.714,5.867 L 33.836,5.837 L 33.954,5.804 L 34.066,5.769 L 34.174,5.733 L 34.276,5.693 L 34.372,5.653 L 34.463,5.611 L 34.545,5.568 L 34.622,5.523 L 34.693,5.477 L 34.757,5.430 L 34.813,5.382 L 34.862,5.333 L 34.904,5.282 L 34.938,5.232 L 34.965,5.180 L 34.984,5.130 L 34.996,5.077 L 35.000,5.026 "/>
<path stroke="#494936" fill="none" stroke-width="0.001"  d="M 34.965,5.009 L 34.961,4.957 L 34.950,4.907 L 34.931,4.857 L 34.905,4.806 L 34.870,4.755 L 34.827,4.706 L 34.780,4.659 L 34.723,4.611 L 34.660,4.565 L 34.590,4.519 L 34.513,4.476 L 34.431,4.433 L 34.341,4.391 L 34.247,4.352 L 34.144,4.314 L 34.037,4.279 L 33.924,4.244 L 33.808,4.211 L 33.687,4.181 L 33.561,4.153 L 33.430,4.128 L 33.296,4.104 L 33.158,4.083 L 33.019,4.063 L 32.877,4.047 L 32.730,4.033 L 32.583,4.021 L 32.434,4.012 L 32.384,4.010 L 31.580,4.010 L 31.530,4.012 L 31.382,4.021 L 31.235,4.033 L 31.089,4.047 L 30.946,4.063 L 30.806,4.083 L 30.669,4.104 L 30.535,4.128 L 30.404,4.153 L 30.278,4.181 L 30.158,4.211 L 30.040,4.244 L 29.927,4.279 L 29.820,4.314 L 29.718,4.352 L 29.624,4.391 L 29.534,4.433 L 29.451,4.476 L 29.375,4.519 L 29.306,4.565 L 29.241,4.611 L 29.185,4.659 L 29.137,4.706 L 29.095,4.755 L 29.061,4.806 L 29.034,4.857 L 29.015,4.907 L 29.004,4.957 L 29.000,5.009 L 29.000,5.009 L 29.004,5.059 L 29.015,5.111 L 29.034,5.162 L 29.061,5.212 L 29.095,5.262 L 29.137,5.311 L 29.185,5.358 L 29.241,5.407 L 29.306,5.452 L 29.375,5.498 L 29.451,5.543 L 29.534,5.584 L 29.624,5.625 L 29.718,5.666 L 29.820,5.704 L 29.927,5.739 L 30.040,5.773 L 30.158,5.806 L 30.278,5.835 L 30.404,5.864 L 30.535,5.891 L 30.669,5.912 L 30.806,5.935 L 30.946,5.953 L 31.089,5.970 L 31.235,5.985 L 31.382,5.996 L 31.530,6.005 L 31.681,6.011 L 31.831,6.014 L 31.982,6.017 L 31.982,6.017 L 32.133,6.014 L 32.285,6.011 L 32.434,6.005 L 32.583,5.996 L 32.730,5.985 L 32.877,5.970 L 33.019,5.953 L 33.158,5.935 L 33.296,5.912 L 33.430,5.891 L 33.561,5.864 L 33.687,5.835 L 33.808,5.806 L 33.924,5.773 L 34.037,5.739 L 34.144,5.704 L 34.247,5.666 L 34.341,5.625 L 34.431,5.584 L 34.513,5.543 L 34.590,5.498 L 34.660,5.452 L 34.723,5.407 L 34.780,5.358 L 34.827,5.311 L 34.870,5.262 L 34.905,5.212 L 34.931,5.162 L 34.950,5.111 L 34.961,5.059 L 34.965,5.009 "/>
<path stroke="#000000" fill="none" stroke-width="0.001"  d="M 29.000,5.009 L 29.000,7.168 "/>
<path stroke="#000000" fill="none" stroke-width="0.001"  d="M 34.965,5.009 L 34.965,7.168 "/>
<text x="22.000" y="11.000"  fill="#000000" text-anchor="end" font-size="0.80" font-family="sans" font-style="normal" font-weight="400">
sshfs</text>
<text x="22.000" y="11.800"  fill="#000000" text-anchor="end" font-size="0.80" font-family="sans" font-style="normal" font-weight="400">
sftp://</text>
<text x="14.000" y="11.000"  fill="#000000" text-anchor="start" font-size="0.80" font-family="sans" font-style="normal" font-weight="400">
Log</text>
<text x="14.000" y="11.800"  fill="#000000" text-anchor="start" font-size="0.80" font-family="sans" font-style="normal" font-weight="400">
everything</text>
<text x="32.000" y="11.000"  fill="#000000" text-anchor="start" font-size="0.80" font-family="sans" font-style="normal" font-weight="400">
Authenticate</text>
<text x="32.000" y="11.800"  fill="#000000" text-anchor="start" font-size="0.80" font-family="sans" font-style="normal" font-weight="400">
Group membership</text>
<path stroke="#000000" fill="none" stroke-width="0.100"  d ="M 13.409,8.364 A 10.947,10.947 0 0,0 15.526,16.503 "/>
<polyline fill="none" stroke="#000000" stroke-width="0.100"  points="13.591,8.787 13.424,8.253 13.098,8.707 "/>
<path stroke="#000000" fill="none" stroke-width="0.100"  d ="M 4.945,8.435 A 10.797,10.797 0 0,0 15.238,18.209 "/>
<polyline fill="none" stroke="#000000" stroke-width="0.100"  points="5.220,8.804 4.934,8.323 4.721,8.840 "/>
<path stroke="#000000" fill="none" stroke-width="0.100"  d ="M 18.373,17.569 A 8.883,8.883 0 0,0 23.035,8.432 "/>
<polyline fill="none" stroke="#000000" stroke-width="0.100"  points="23.349,8.773 23.019,8.322 22.856,8.857 "/>
<path stroke="#000000" fill="none" stroke-width="0.100"  d ="M 18.998,18.148 A 13.981,13.981 0 0,0 31.457,8.412 "/>
<polyline fill="none" stroke="#000000" stroke-width="0.100"  points="31.587,8.856 31.491,8.306 31.108,8.713 "/>
<text x="7.000" y="16.000"  fill="#000000" text-anchor="middle" font-size="0.80" font-family="sans" font-style="normal" font-weight="400">
Get</text>
<text x="7.000" y="16.800"  fill="#000000" text-anchor="middle" font-size="0.80" font-family="sans" font-style="normal" font-weight="400">
configuration</text>
<path stroke="none" fill="#A5A585" stroke-width="0.001" d="M 44.000,7.186 L 43.996,7.134 L 43.984,7.082 L 43.965,7.030 L 43.938,6.980 L 43.904,6.929 L 43.862,6.879 L 43.813,6.830 L 43.757,6.781 L 43.693,6.734 L 43.622,6.689 L 43.545,6.644 L 43.463,6.599 L 43.372,6.558 L 43.276,6.517 L 43.174,6.479 L 43.066,6.442 L 42.954,6.408 L 42.836,6.375 L 42.714,6.345 L 42.586,6.316 L 42.456,6.289 L 42.321,6.265 L 42.182,6.242 L 42.042,6.223 L 41.898,6.207 L 41.751,6.193 L 41.604,6.181 L 41.454,6.173 L 41.303,6.165 L 41.152,6.160 L 41.000,6.160 L 41.000,6.160 L 40.848,6.160 L 40.696,6.165 L 40.545,6.173 L 40.395,6.181 L 40.248,6.193 L 40.101,6.207 L 39.958,6.223 L 39.817,6.242 L 39.679,6.265 L 39.543,6.289 L 39.413,6.316 L 39.286,6.345 L 39.164,6.375 L 39.046,6.408 L 38.933,6.442 L 38.825,6.479 L 38.724,6.517 L 38.628,6.558 L 38.537,6.599 L 38.454,6.644 L 38.377,6.689 L 38.306,6.734 L 38.242,6.781 L 38.186,6.830 L 38.137,6.879 L 38.095,6.929 L 38.061,6.980 L 38.034,7.030 L 38.015,7.082 L 38.004,7.134 L 38.000,7.186 L 38.000,7.186 L 38.004,7.238 L 38.015,7.289 L 38.034,7.342 L 38.061,7.392 L 38.095,7.443 L 38.137,7.493 L 38.186,7.542 L 38.242,7.591 L 38.306,7.637 L 38.377,7.683 L 38.454,7.728 L 38.537,7.773 L 38.628,7.814 L 38.724,7.854 L 38.825,7.893 L 38.933,7.930 L 39.046,7.964 L 39.164,7.997 L 39.286,8.027 L 39.413,8.056 L 39.543,8.083 L 39.679,8.107 L 39.817,8.129 L 39.958,8.149 L 40.101,8.165 L 40.248,8.179 L 40.395,8.190 L 40.545,8.199 L 40.696,8.206 L 40.848,8.211 L 41.000,8.212 L 41.000,8.212 L 41.152,8.211 L 41.303,8.206 L 41.454,8.199 L 41.604,8.190 L 41.751,8.179 L 41.898,8.165 L 42.042,8.149 L 42.182,8.129 L 42.321,8.107 L 42.456,8.083 L 42.586,8.056 L 42.714,8.027 L 42.836,7.997 L 42.954,7.964 L 43.066,7.930 L 43.174,7.893 L 43.276,7.854 L 43.372,7.814 L 43.463,7.773 L 43.545,7.728 L 43.622,7.683 L 43.693,7.637 L 43.757,7.591 L 43.813,7.542 L 43.862,7.493 L 43.904,7.443 L 43.938,7.392 L 43.965,7.342 L 43.984,7.289 L 43.996,7.238 L 44.000,7.186 "/>
<path stroke="#494936" fill="none" stroke-width="0.001"  d="M 43.965,7.170 L 43.961,7.117 L 43.950,7.067 L 43.931,7.016 L 43.905,6.966 L 43.870,6.916 L 43.827,6.867 L 43.780,6.818 L 43.723,6.772 L 43.660,6.726 L 43.590,6.680 L 43.513,6.636 L 43.431,6.593 L 43.341,6.552 L 43.247,6.511 L 43.144,6.474 L 43.037,6.438 L 42.924,6.404 L 42.808,6.372 L 42.687,6.342 L 42.561,6.313 L 42.430,6.288 L 42.296,6.264 L 42.158,6.242 L 42.019,6.223 L 41.877,6.207 L 41.730,6.194 L 41.583,6.181 L 41.434,6.173 L 41.285,6.167 L 41.133,6.163 L 40.982,6.160 L 40.982,6.160 L 40.831,6.163 L 40.681,6.167 L 40.530,6.173 L 40.382,6.181 L 40.235,6.194 L 40.089,6.207 L 39.946,6.223 L 39.806,6.242 L 39.669,6.264 L 39.535,6.288 L 39.404,6.313 L 39.278,6.342 L 39.158,6.372 L 39.040,6.404 L 38.927,6.438 L 38.820,6.474 L 38.718,6.511 L 38.624,6.552 L 38.534,6.593 L 38.451,6.636 L 38.375,6.680 L 38.306,6.726 L 38.241,6.772 L 38.185,6.818 L 38.137,6.867 L 38.095,6.916 L 38.061,6.966 L 38.034,7.016 L 38.015,7.067 L 38.004,7.117 L 38.000,7.170 L 38.000,7.170 L 38.004,7.220 L 38.015,7.270 L 38.034,7.322 L 38.061,7.372 L 38.095,7.422 L 38.137,7.471 L 38.185,7.519 L 38.241,7.566 L 38.306,7.612 L 38.375,7.659 L 38.451,7.703 L 38.534,7.745 L 38.624,7.786 L 38.718,7.827 L 38.820,7.864 L 38.927,7.900 L 39.040,7.934 L 39.158,7.967 L 39.278,7.996 L 39.404,8.025 L 39.535,8.051 L 39.669,8.074 L 39.806,8.095 L 39.946,8.114 L 40.089,8.131 L 40.235,8.144 L 40.382,8.157 L 40.530,8.165 L 40.681,8.171 L 40.831,8.176 L 40.982,8.177 L 40.982,8.177 L 41.133,8.176 L 41.285,8.171 L 41.434,8.165 L 41.583,8.157 L 41.730,8.144 L 41.877,8.131 L 42.019,8.114 L 42.158,8.095 L 42.296,8.074 L 42.430,8.051 L 42.561,8.025 L 42.687,7.996 L 42.808,7.967 L 42.924,7.934 L 43.037,7.900 L 43.144,7.864 L 43.247,7.827 L 43.341,7.786 L 43.431,7.745 L 43.513,7.703 L 43.590,7.659 L 43.660,7.612 L 43.723,7.566 L 43.780,7.519 L 43.827,7.471 L 43.870,7.422 L 43.905,7.372 L 43.931,7.322 L 43.950,7.270 L 43.961,7.220 L 43.965,7.170 "/>
<path stroke="none" fill="#A5A585" stroke-width="0.001" d="M 38.000,5.044 L 38.000,7.204 L 43.965,7.204 L 43.965,5.044 L 38.000,5.044 "/>
<path stroke="none" fill="#C9C9B6" stroke-width="0.001" d="M 44.000,5.026 L 43.996,4.972 L 43.984,4.921 L 43.965,4.870 L 43.938,4.819 L 43.904,4.768 L 43.862,4.718 L 43.813,4.668 L 43.757,4.621 L 43.693,4.574 L 43.622,4.527 L 43.545,4.483 L 43.463,4.439 L 43.372,4.397 L 43.276,4.357 L 43.174,4.319 L 43.066,4.281 L 42.954,4.247 L 42.836,4.215 L 42.714,4.184 L 42.586,4.155 L 42.456,4.129 L 42.321,4.105 L 42.182,4.083 L 42.042,4.063 L 41.898,4.047 L 41.751,4.033 L 41.604,4.021 L 41.454,4.012 L 41.303,4.005 L 41.152,4.001 L 41.000,4.000 L 41.000,4.000 L 40.848,4.001 L 40.696,4.005 L 40.545,4.012 L 40.395,4.021 L 40.248,4.033 L 40.101,4.047 L 39.958,4.063 L 39.817,4.083 L 39.679,4.105 L 39.543,4.129 L 39.413,4.155 L 39.286,4.184 L 39.164,4.215 L 39.046,4.247 L 38.933,4.281 L 38.825,4.319 L 38.724,4.357 L 38.628,4.397 L 38.537,4.439 L 38.454,4.483 L 38.377,4.527 L 38.306,4.574 L 38.242,4.621 L 38.186,4.668 L 38.137,4.718 L 38.095,4.768 L 38.061,4.819 L 38.034,4.870 L 38.015,4.921 L 38.004,4.972 L 38.000,5.026 L 38.000,5.026 L 38.004,5.077 L 38.015,5.130 L 38.034,5.180 L 38.061,5.232 L 38.095,5.282 L 38.137,5.333 L 38.186,5.382 L 38.242,5.430 L 38.306,5.477 L 38.377,5.523 L 38.454,5.568 L 38.537,5.611 L 38.628,5.653 L 38.724,5.693 L 38.825,5.733 L 38.933,5.769 L 39.046,5.804 L 39.164,5.837 L 39.286,5.867 L 39.413,5.896 L 39.543,5.923 L 39.679,5.946 L 39.817,5.969 L 39.958,5.987 L 40.101,6.004 L 40.248,6.019 L 40.395,6.029 L 40.545,6.039 L 40.696,6.046 L 40.848,6.050 L 41.000,6.051 L 41.000,6.051 L 41.152,6.050 L 41.303,6.046 L 41.454,6.039 L 41.604,6.029 L 41.751,6.019 L 41.898,6.004 L 42.042,5.987 L 42.182,5.969 L 42.321,5.946 L 42.456,5.923 L 42.586,5.896 L 42.714,5.867 L 42.836,5.837 L 42.954,5.804 L 43.066,5.769 L 43.174,5.733 L 43.276,5.693 L 43.372,5.653 L 43.463,5.611 L 43.545,5.568 L 43.622,5.523 L 43.693,5.477 L 43.757,5.430 L 43.813,5.382 L 43.862,5.333 L 43.904,5.282 L 43.938,5.232 L 43.965,5.180 L 43.984,5.130 L 43.996,5.077 L 44.000,5.026 "/>
<path stroke="#494936" fill="none" stroke-width="0.001"  d="M 43.965,5.009 L 43.961,4.957 L 43.950,4.907 L 43.931,4.857 L 43.905,4.806 L 43.870,4.755 L 43.827,4.706 L 43.780,4.659 L 43.723,4.611 L 43.660,4.565 L 43.590,4.519 L 43.513,4.476 L 43.431,4.433 L 43.341,4.391 L 43.247,4.352 L 43.144,4.314 L 43.037,4.279 L 42.924,4.244 L 42.808,4.211 L 42.687,4.181 L 42.561,4.153 L 42.430,4.128 L 42.296,4.104 L 42.158,4.083 L 42.019,4.063 L 41.877,4.047 L 41.730,4.033 L 41.583,4.021 L 41.434,4.012 L 41.384,4.010 L 40.580,4.010 L 40.530,4.012 L 40.382,4.021 L 40.235,4.033 L 40.089,4.047 L 39.946,4.063 L 39.806,4.083 L 39.669,4.104 L 39.535,4.128 L 39.404,4.153 L 39.278,4.181 L 39.158,4.211 L 39.040,4.244 L 38.927,4.279 L 38.820,4.314 L 38.718,4.352 L 38.624,4.391 L 38.534,4.433 L 38.451,4.476 L 38.375,4.519 L 38.306,4.565 L 38.241,4.611 L 38.185,4.659 L 38.137,4.706 L 38.095,4.755 L 38.061,4.806 L 38.034,4.857 L 38.015,4.907 L 38.004,4.957 L 38.000,5.009 L 38.000,5.009 L 38.004,5.059 L 38.015,5.111 L 38.034,5.162 L 38.061,5.212 L 38.095,5.262 L 38.137,5.311 L 38.185,5.358 L 38.241,5.407 L 38.306,5.452 L 38.375,5.498 L 38.451,5.543 L 38.534,5.584 L 38.624,5.625 L 38.718,5.666 L 38.820,5.704 L 38.927,5.739 L 39.040,5.773 L 39.158,5.806 L 39.278,5.835 L 39.404,5.864 L 39.535,5.891 L 39.669,5.912 L 39.806,5.935 L 39.946,5.953 L 40.089,5.970 L 40.235,5.985 L 40.382,5.996 L 40.530,6.005 L 40.681,6.011 L 40.831,6.014 L 40.982,6.017 L 40.982,6.017 L 41.133,6.014 L 41.285,6.011 L 41.434,6.005 L 41.583,5.996 L 41.730,5.985 L 41.877,5.970 L 42.019,5.953 L 42.158,5.935 L 42.296,5.912 L 42.430,5.891 L 42.561,5.864 L 42.687,5.835 L 42.808,5.806 L 42.924,5.773 L 43.037,5.739 L 43.144,5.704 L 43.247,5.666 L 43.341,5.625 L 43.431,5.584 L 43.513,5.543 L 43.590,5.498 L 43.660,5.452 L 43.723,5.407 L 43.780,5.358 L 43.827,5.311 L 43.870,5.262 L 43.905,5.212 L 43.931,5.162 L 43.950,5.111 L 43.961,5.059 L 43.965,5.009 "/>
<path stroke="#000000" fill="none" stroke-width="0.001"  d="M 38.000,5.009 L 38.000,7.168 "/>
<path stroke="#000000" fill="none" stroke-width="0.001"  d="M 43.965,5.009 L 43.965,7.168 "/>
<path stroke="#000000" fill="none" stroke-width="0.100"  d ="M 38.000,4.806 A 10.000,10.000 0 0,0 26.180,4.687 "/>
<polyline fill="none" stroke="#000000" stroke-width="0.100"  points="26.339,4.252 26.089,4.752 26.639,4.651 "/>
<text x="32.000" y="2.223"  fill="#000000" text-anchor="middle" font-size="0.80" font-family="sans" font-style="normal" font-weight="400">
mount --bind</text>
<path stroke="none" fill="#C9C9B6" stroke-width="0.001" d="M 38.117,17.889 L 40.773,17.889 L 39.656,19.009 L 37.000,19.009 L 38.117,17.889 "/>
<path stroke="#494936" fill="none" stroke-width="0.001"  d="M 38.117,17.889 L 40.773,17.889 L 39.656,19.009 L 37.000,19.009 L 38.117,17.889 "/>
<path stroke="#DBDBCE" fill="none" stroke-width="0.001"  d="M 38.219,18.820 L 38.219,18.826 L 38.220,18.831 L 38.222,18.837 L 38.224,18.844 L 38.227,18.849 L 38.231,18.855 L 38.236,18.860 L 38.241,18.865 L 38.245,18.871 L 38.252,18.877 L 38.258,18.882 L 38.265,18.886 L 38.274,18.891 L 38.281,18.895 L 38.291,18.899 L 38.300,18.904 L 38.309,18.908 L 38.320,18.912 L 38.331,18.915 L 38.341,18.918 L 38.353,18.921 L 38.364,18.925 L 38.376,18.926 L 38.389,18.928 L 38.402,18.930 L 38.415,18.932 L 38.427,18.933 L 38.440,18.935 L 38.454,18.936 L 38.467,18.936 L 38.480,18.936 "/>
<path stroke="#DBDBCE" fill="none" stroke-width="0.001"  d="M 38.451,18.936 L 38.464,18.936 L 38.476,18.936 L 38.489,18.934 L 38.502,18.933 L 38.515,18.932 L 38.527,18.930 L 38.539,18.928 L 38.551,18.926 L 38.563,18.923 L 38.575,18.920 L 38.585,18.917 L 38.596,18.913 L 38.606,18.910 L 38.616,18.906 L 38.625,18.902 L 38.634,18.898 L 38.642,18.893 L 38.650,18.888 L 38.658,18.883 L 38.664,18.878 L 38.670,18.872 L 38.675,18.867 L 38.680,18.861 L 38.685,18.855 L 38.688,18.850 L 38.692,18.844 L 38.693,18.837 L 38.695,18.831 L 38.697,18.826 L 38.697,18.820 "/>
<path stroke="#DBDBCE" fill="none" stroke-width="0.001"  d="M 38.508,18.603 L 38.495,18.603 L 38.482,18.603 L 38.468,18.603 L 38.456,18.604 L 38.443,18.606 L 38.430,18.607 L 38.418,18.608 L 38.405,18.611 L 38.393,18.613 L 38.382,18.614 L 38.371,18.617 L 38.359,18.620 L 38.349,18.623 L 38.339,18.626 L 38.329,18.631 L 38.319,18.634 L 38.311,18.638 L 38.302,18.641 L 38.294,18.645 L 38.288,18.650 L 38.281,18.655 L 38.275,18.658 L 38.269,18.663 L 38.264,18.668 L 38.260,18.674 L 38.256,18.678 L 38.254,18.683 L 38.251,18.688 L 38.249,18.693 L 38.249,18.699 L 38.248,18.703 "/>
<path stroke="#DBDBCE" fill="none" stroke-width="0.001"  d="M 38.725,18.703 L 38.725,18.698 L 38.725,18.693 L 38.723,18.688 L 38.721,18.682 L 38.718,18.677 L 38.713,18.671 L 38.709,18.667 L 38.705,18.662 L 38.698,18.658 L 38.693,18.652 L 38.687,18.648 L 38.678,18.644 L 38.671,18.639 L 38.663,18.636 L 38.654,18.632 L 38.645,18.627 L 38.634,18.624 L 38.624,18.621 L 38.614,18.618 L 38.603,18.616 L 38.591,18.613 L 38.580,18.611 L 38.568,18.609 L 38.556,18.607 L 38.544,18.606 L 38.532,18.604 L 38.519,18.603 L 38.505,18.603 L 38.492,18.603 L 38.480,18.603 "/>
<path stroke="none" fill="#A5A585" stroke-width="0.001" d="M 37.000,19.125 L 39.656,19.125 L 39.656,19.009 L 37.000,19.009 L 37.000,19.125 "/>
<path stroke="#494936" fill="none" stroke-width="0.001"  d="M 37.000,19.125 L 39.656,19.125 L 39.656,19.009 L 37.000,19.009 L 37.000,19.125 "/>
<path stroke="none" fill="#A5A585" stroke-width="0.001" d="M 38.117,17.889 L 40.773,17.889 L 40.773,16.072 L 38.117,16.072 L 38.117,17.889 "/>
<path stroke="#494936" fill="none" stroke-width="0.001"  d="M 38.117,17.889 L 40.773,17.889 L 40.773,16.072 L 38.117,16.072 L 38.117,17.889 "/>
<path stroke="none" fill="#7A7A5A" stroke-width="0.001" d="M 40.846,17.817 L 40.846,16.000 L 40.773,16.072 L 40.773,17.889 L 40.846,17.817 "/>
<path stroke="#494936" fill="none" stroke-width="0.001"  d="M 40.846,17.817 L 40.846,16.000 L 40.773,16.072 L 40.773,17.889 L 40.846,17.817 "/>
<path stroke="none" fill="#FFFFFF" stroke-width="0.001" d="M 38.248,17.773 L 40.643,17.773 L 40.643,16.218 L 38.248,16.218 L 38.248,17.773 "/>
<path stroke="#494936" fill="none" stroke-width="0.001"  d="M 38.248,17.773 L 40.643,17.773 L 40.643,16.218 L 38.248,16.218 L 38.248,17.773 "/>
<path stroke="none" fill="#93936C" stroke-width="0.001" d="M 38.248,17.977 L 40.482,17.977 L 39.902,18.559 L 37.668,18.559 L 38.248,17.977 "/>
<path stroke="#494936" fill="none" stroke-width="0.001"  d="M 38.248,17.977 L 40.482,17.977 L 39.902,18.559 L 37.668,18.559 L 38.248,17.977 "/>
<path stroke="none" fill="#7A7A5A" stroke-width="0.001" d="M 38.596,18.783 L 38.596,18.780 L 38.595,18.777 L 38.595,18.773 L 38.593,18.770 L 38.593,18.766 L 38.590,18.764 L 38.589,18.760 L 38.587,18.758 L 38.584,18.755 L 38.582,18.752 L 38.580,18.749 L 38.576,18.746 L 38.573,18.743 L 38.569,18.740 L 38.566,18.739 L 38.562,18.736 L 38.558,18.734 L 38.553,18.732 L 38.549,18.729 L 38.544,18.728 L 38.539,18.726 L 38.535,18.725 L 38.530,18.723 L 38.525,18.722 L 38.519,18.721 L 38.514,18.720 L 38.508,18.719 L 38.504,18.719 L 38.498,18.719 L 38.492,18.719 L 38.487,18.719 L 38.487,18.719 L 38.481,18.719 L 38.475,18.719 L 38.470,18.719 L 38.465,18.719 L 38.460,18.720 L 38.454,18.721 L 38.449,18.722 L 38.444,18.723 L 38.439,18.725 L 38.434,18.726 L 38.430,18.728 L 38.424,18.729 L 38.421,18.732 L 38.416,18.734 L 38.412,18.736 L 38.408,18.739 L 38.405,18.740 L 38.401,18.743 L 38.398,18.746 L 38.395,18.749 L 38.391,18.752 L 38.390,18.755 L 38.386,18.758 L 38.385,18.760 L 38.383,18.764 L 38.382,18.766 L 38.380,18.770 L 38.380,18.773 L 38.379,18.777 L 38.378,18.780 L 38.378,18.783 L 38.378,18.783 L 38.378,18.787 L 38.379,18.790 L 38.380,18.793 L 38.380,18.797 L 38.382,18.800 L 38.383,18.803 L 38.385,18.806 L 38.386,18.809 L 38.390,18.812 L 38.391,18.815 L 38.395,18.818 L 38.398,18.821 L 38.401,18.824 L 38.405,18.826 L 38.408,18.828 L 38.412,18.831 L 38.416,18.833 L 38.421,18.835 L 38.424,18.837 L 38.430,18.838 L 38.434,18.841 L 38.439,18.842 L 38.444,18.843 L 38.449,18.844 L 38.454,18.846 L 38.460,18.847 L 38.465,18.848 L 38.470,18.848 L 38.475,18.848 L 38.481,18.848 L 38.487,18.848 L 38.487,18.848 L 38.492,18.848 L 38.498,18.848 L 38.504,18.848 L 38.508,18.848 L 38.514,18.847 L 38.519,18.846 L 38.525,18.844 L 38.530,18.843 L 38.535,18.842 L 38.539,18.841 L 38.544,18.838 L 38.549,18.837 L 38.553,18.835 L 38.558,18.833 L 38.562,18.831 L 38.566,18.828 L 38.569,18.826 L 38.573,18.824 L 38.576,18.821 L 38.580,18.818 L 38.582,18.815 L 38.584,18.812 L 38.587,18.809 L 38.589,18.806 L 38.590,18.803 L 38.593,18.800 L 38.593,18.797 L 38.595,18.793 L 38.595,18.790 L 38.596,18.787 L 38.596,18.783 "/>
<path stroke="#DBDBCE" fill="none" stroke-width="0.001"  d="M 38.582,18.777 L 38.582,18.773 L 38.581,18.770 L 38.581,18.767 L 38.580,18.765 L 38.578,18.761 L 38.578,18.759 L 38.575,18.756 L 38.573,18.753 L 38.571,18.751 L 38.569,18.748 L 38.566,18.746 L 38.563,18.742 L 38.560,18.740 L 38.557,18.739 L 38.554,18.736 L 38.550,18.734 L 38.546,18.733 L 38.543,18.730 L 38.539,18.729 L 38.534,18.727 L 38.530,18.726 L 38.525,18.725 L 38.520,18.723 L 38.516,18.722 L 38.511,18.721 L 38.505,18.720 L 38.501,18.719 L 38.495,18.719 L 38.491,18.719 L 38.485,18.719 L 38.480,18.719 L 38.480,18.719 L 38.475,18.719 L 38.470,18.719 L 38.465,18.719 L 38.460,18.719 L 38.455,18.720 L 38.450,18.721 L 38.444,18.722 L 38.440,18.723 L 38.436,18.725 L 38.431,18.726 L 38.427,18.727 L 38.421,18.729 L 38.418,18.730 L 38.414,18.733 L 38.410,18.734 L 38.406,18.736 L 38.403,18.739 L 38.400,18.740 L 38.397,18.742 L 38.394,18.746 L 38.391,18.748 L 38.389,18.751 L 38.386,18.753 L 38.385,18.756 L 38.383,18.759 L 38.382,18.761 L 38.381,18.765 L 38.380,18.767 L 38.379,18.770 L 38.379,18.773 L 38.379,18.777 L 38.379,18.777 L 38.379,18.779 L 38.379,18.783 L 38.380,18.786 L 38.381,18.787 L 38.382,18.791 L 38.383,18.794 L 38.385,18.797 L 38.386,18.799 L 38.389,18.803 L 38.391,18.804 L 38.394,18.807 L 38.397,18.810 L 38.400,18.812 L 38.403,18.814 L 38.406,18.817 L 38.410,18.818 L 38.414,18.821 L 38.418,18.823 L 38.421,18.824 L 38.427,18.826 L 38.431,18.828 L 38.436,18.828 L 38.440,18.830 L 38.444,18.831 L 38.450,18.831 L 38.455,18.833 L 38.460,18.834 L 38.465,18.834 L 38.470,18.834 L 38.475,18.834 L 38.480,18.834 L 38.480,18.834 L 38.485,18.834 L 38.491,18.834 L 38.495,18.834 L 38.501,18.834 L 38.505,18.833 L 38.511,18.831 L 38.516,18.831 L 38.520,18.830 L 38.525,18.828 L 38.530,18.828 L 38.534,18.826 L 38.539,18.824 L 38.543,18.823 L 38.546,18.821 L 38.550,18.818 L 38.554,18.817 L 38.557,18.814 L 38.560,18.812 L 38.563,18.810 L 38.566,18.807 L 38.569,18.804 L 38.571,18.803 L 38.573,18.799 L 38.575,18.797 L 38.578,18.794 L 38.578,18.791 L 38.580,18.787 L 38.581,18.786 L 38.581,18.783 L 38.582,18.779 L 38.582,18.777 "/>
<path stroke="#626248" fill="none" stroke-width="0.001"  d="M 38.234,18.834 L 38.234,18.841 L 38.235,18.846 L 38.237,18.851 L 38.239,18.858 L 38.242,18.863 L 38.245,18.868 L 38.250,18.874 L 38.255,18.880 L 38.261,18.885 L 38.266,18.891 L 38.273,18.895 L 38.280,18.901 L 38.288,18.905 L 38.296,18.910 L 38.305,18.913 L 38.314,18.918 L 38.325,18.922 L 38.334,18.926 L 38.346,18.929 L 38.357,18.932 L 38.368,18.936 L 38.379,18.939 L 38.391,18.940 L 38.403,18.943 L 38.416,18.945 L 38.429,18.946 L 38.441,18.948 L 38.454,18.949 L 38.468,18.950 L 38.481,18.950 L 38.494,18.950 "/>
<path stroke="#626248" fill="none" stroke-width="0.001"  d="M 38.465,18.950 L 38.478,18.950 L 38.491,18.950 L 38.504,18.949 L 38.516,18.947 L 38.529,18.946 L 38.542,18.945 L 38.553,18.943 L 38.565,18.940 L 38.576,18.937 L 38.588,18.935 L 38.600,18.932 L 38.610,18.928 L 38.620,18.925 L 38.630,18.920 L 38.640,18.916 L 38.648,18.912 L 38.657,18.907 L 38.664,18.902 L 38.671,18.898 L 38.678,18.892 L 38.684,18.887 L 38.690,18.882 L 38.695,18.875 L 38.698,18.869 L 38.703,18.864 L 38.705,18.858 L 38.708,18.852 L 38.710,18.846 L 38.710,18.841 L 38.711,18.834 "/>
<path stroke="#626248" fill="none" stroke-width="0.001"  d="M 38.523,18.617 L 38.510,18.617 L 38.497,18.617 L 38.484,18.617 L 38.471,18.618 L 38.457,18.620 L 38.444,18.620 L 38.433,18.623 L 38.420,18.624 L 38.408,18.627 L 38.397,18.629 L 38.385,18.632 L 38.374,18.634 L 38.364,18.638 L 38.354,18.641 L 38.344,18.644 L 38.334,18.648 L 38.326,18.651 L 38.317,18.655 L 38.309,18.660 L 38.302,18.664 L 38.296,18.668 L 38.289,18.674 L 38.283,18.677 L 38.279,18.682 L 38.275,18.688 L 38.271,18.692 L 38.268,18.697 L 38.265,18.702 L 38.264,18.707 L 38.263,18.713 L 38.263,18.718 "/>
<path stroke="#626248" fill="none" stroke-width="0.001"  d="M 38.741,18.718 L 38.740,18.712 L 38.739,18.707 L 38.738,18.702 L 38.735,18.696 L 38.732,18.691 L 38.728,18.686 L 38.724,18.682 L 38.719,18.677 L 38.713,18.671 L 38.707,18.667 L 38.700,18.662 L 38.693,18.658 L 38.685,18.654 L 38.677,18.650 L 38.668,18.646 L 38.659,18.642 L 38.649,18.639 L 38.639,18.636 L 38.628,18.633 L 38.617,18.631 L 38.606,18.627 L 38.595,18.625 L 38.583,18.623 L 38.570,18.621 L 38.558,18.620 L 38.546,18.618 L 38.533,18.617 L 38.519,18.617 L 38.507,18.617 L 38.494,18.617 "/>
<path stroke="none" fill="#7A7A5A" stroke-width="0.001" d="M 40.773,17.991 L 39.656,19.111 L 39.656,19.009 L 40.773,17.889 L 40.773,17.991 "/>
<path stroke="#494936" fill="none" stroke-width="0.001"  d="M 40.773,17.991 L 39.656,19.111 L 39.656,19.009 L 40.773,17.889 L 40.773,17.991 "/>
<path stroke="none" fill="#7A7A5A" stroke-width="0.001" d="M 40.396,17.803 L 40.396,17.831 L 40.614,17.831 L 40.614,17.803 L 40.396,17.803 "/>
<path stroke="#494936" fill="none" stroke-width="0.001"  d="M 40.396,17.803 L 40.396,17.831 L 40.614,17.831 L 40.614,17.803 L 40.396,17.803 "/>
<path stroke="#000000" fill="none" stroke-width="0.001"  d="M 40.336,18.122 L 38.117,18.122 "/>
<path stroke="#000000" fill="none" stroke-width="0.001"  d="M 40.192,18.268 L 37.973,18.268 "/>
<path stroke="#000000" fill="none" stroke-width="0.001"  d="M 40.047,18.413 L 37.827,18.413 "/>
<path stroke="none" fill="#C9C9B6" stroke-width="0.001" d="M 38.190,16.000 L 40.846,16.000 L 40.773,16.072 L 38.117,16.072 L 38.190,16.000 "/>
<path stroke="#494936" fill="none" stroke-width="0.001"  d="M 38.190,16.000 L 40.846,16.000 L 40.773,16.072 L 38.117,16.072 L 38.190,16.000 "/>
<path stroke="#000000" fill="none" stroke-width="0.100"  d ="M 40.101,15.999 A 17.089,17.089 0 0,0 41.301,8.429 "/>
<polyline fill="none" stroke="#000000" stroke-width="0.100"  points="41.584,8.796 41.294,8.318 41.085,8.837 "/>
<text x="5.000" y="5.213"  fill="#000000" text-anchor="middle" font-size="0.80" font-family="sans" font-style="normal" font-weight="400">
Puppet</text>
<text x="32.000" y="5.213"  fill="#000000" text-anchor="middle" font-size="0.80" font-family="sans" font-style="normal" font-weight="400">
OpenLDAP</text>
<text x="14.000" y="5.213"  fill="#000000" text-anchor="middle" font-size="0.80" font-family="sans" font-style="normal" font-weight="400">
Syslog</text>
<text x="23.000" y="5.213"  fill="#000000" text-anchor="middle" font-size="0.80" font-family="sans" font-style="normal" font-weight="400">
Fileserver</text>
<text x="41.000" y="5.213"  fill="#000000" text-anchor="middle" font-size="0.80" font-family="sans" font-style="normal" font-weight="400">
X11rdp</text>
<text x="42.000" y="11.223"  fill="#000000" text-anchor="start" font-size="0.80" font-family="sans" font-style="normal" font-weight="400">
rdesktop</text>
<path stroke="#000000" fill="none" stroke-width="0.100"  d ="M 25.148,8.167 A 32.991,32.991 0 0,0 38.117,17.058 "/>
<polyline fill="none" stroke="#000000" stroke-width="0.100"  points="25.592,8.294 25.074,8.084 25.217,8.624 "/>
<text x="33.000" y="17.000"  fill="#000000" text-anchor="start" font-size="0.80" font-family="sans" font-style="normal" font-weight="400">
Swish</text>
<text x="33.000" y="17.800"  fill="#000000" text-anchor="start" font-size="0.80" font-family="sans" font-style="normal" font-weight="400">
sftp://</text>
<text x="33.000" y="18.600"  fill="#000000" text-anchor="start" font-size="0.80" font-family="sans" font-style="normal" font-weight="400">
sshfs</text>
<line x1="38.003" y1="6.101" x2="35.188" y2="6.101" stroke="#000000" stroke-width="0.100" />
<polyline fill="none" stroke="#000000" stroke-width="0.100"  points="35.577,5.851 35.077,6.101 35.577,6.351 "/>
<line x1="25.965" y1="6.101" x2="28.780" y2="6.101" stroke="#000000" stroke-width="0.100" />
<polyline fill="none" stroke="#000000" stroke-width="0.100"  points="28.391,6.351 28.891,6.101 28.391,5.851 "/>
</svg>