<?xml version="1.0" encoding="UTF-8" standalone="no"?>
<!-- Created by diasvg.py -->
<svg width="36.808cm" height="19.150cm" viewBox="2.000 1.000 38.807 20.150"
 xmlns="http://www.w3.org/2000/svg"
 xmlns:xlink="http://www.w3.org/1999/xlink">
<path stroke="none" fill="#A5A585" stroke-width="0.001" d="M 8.000,4.186 L 7.996,4.134 L 7.984,4.082 L 7.965,4.030 L 7.938,3.980 L 7.904,3.929 L 7.862,3.879 L 7.813,3.830 L 7.757,3.781 L 7.693,3.734 L 7.622,3.689 L 7.545,3.644 L 7.463,3.599 L 7.372,3.558 L 7.276,3.517 L 7.174,3.479 L 7.066,3.442 L 6.954,3.408 L 6.836,3.375 L 6.714,3.345 L 6.586,3.316 L 6.456,3.289 L 6.321,3.265 L 6.182,3.242 L 6.042,3.223 L 5.898,3.207 L 5.751,3.193 L 5.604,3.181 L 5.454,3.173 L 5.303,3.165 L 5.152,3.160 L 5.000,3.160 L 5.000,3.160 L 4.848,3.160 L 4.696,3.165 L 4.545,3.173 L 4.395,3.181 L 4.248,3.193 L 4.101,3.207 L 3.958,3.223 L 3.817,3.242 L 3.679,3.265 L 3.543,3.289 L 3.413,3.316 L 3.286,3.345 L 3.164,3.375 L 3.046,3.408 L 2.933,3.442 L 2.825,3.479 L 2.724,3.517 L 2.628,3.558 L 2.537,3.599 L 2.454,3.644 L 2.377,3.689 L 2.306,3.734 L 2.242,3.781 L 2.186,3.830 L 2.137,3.879 L 2.095,3.929 L 2.061,3.980 L 2.034,4.030 L 2.015,4.082 L 2.004,4.134 L 2.000,4.186 L 2.000,4.186 L 2.004,4.238 L 2.015,4.289 L 2.034,4.342 L 2.061,4.392 L 2.095,4.443 L 2.137,4.493 L 2.186,4.542 L 2.242,4.591 L 2.306,4.637 L 2.377,4.683 L 2.454,4.728 L 2.537,4.773 L 2.628,4.814 L 2.724,4.854 L 2.825,4.893 L 2.933,4.930 L 3.046,4.964 L 3.164,4.997 L 3.286,5.027 L 3.413,5.056 L 3.543,5.083 L 3.679,5.107 L 3.817,5.129 L 3.958,5.149 L 4.101,5.165 L 4.248,5.179 L 4.395,5.190 L 4.545,5.199 L 4.696,5.206 L 4.848,5.211 L 5.000,5.212 L 5.000,5.212 L 5.152,5.211 L 5.303,5.206 L 5.454,5.199 L 5.604,5.190 L 5.751,5.179 L 5.898,5.165 L 6.042,5.149 L 6.182,5.129 L 6.321,5.107 L 6.456,5.083 L 6.586,5.056 L 6.714,5.027 L 6.836,4.997 L 6.954,4.964 L 7.066,4.930 L 7.174,4.893 L 7.276,4.854 L 7.372,4.814 L 7.463,4.773 L 7.545,4.728 L 7.622,4.683 L 7.693,4.637 L 7.757,4.591 L 7.813,4.542 L 7.862,4.493 L 7.904,4.443 L 7.938,4.392 L 7.965,4.342 L 7.984,4.289 L 7.996,4.238 L 8.000,4.186 "/>
<path stroke="#494936" fill="none" stroke-width="0.001"  d="M 7.965,4.170 L 7.961,4.117 L 7.950,4.067 L 7.931,4.016 L 7.905,3.966 L 7.870,3.916 L 7.827,3.867 L 7.780,3.818 L 7.723,3.772 L 7.660,3.726 L 7.590,3.680 L 7.513,3.636 L 7.431,3.593 L 7.341,3.552 L 7.247,3.511 L 7.144,3.474 L 7.037,3.438 L 6.924,3.404 L 6.808,3.372 L 6.687,3.342 L 6.561,3.313 L 6.430,3.288 L 6.296,3.264 L 6.158,3.242 L 6.019,3.223 L 5.877,3.207 L 5.730,3.194 L 5.583,3.181 L 5.434,3.173 L 5.285,3.167 L 5.133,3.163 L 4.982,3.160 L 4.982,3.160 L 4.831,3.163 L 4.681,3.167 L 4.530,3.173 L 4.382,3.181 L 4.235,3.194 L 4.089,3.207 L 3.946,3.223 L 3.806,3.242 L 3.669,3.264 L 3.535,3.288 L 3.404,3.313 L 3.278,3.342 L 3.158,3.372 L 3.040,3.404 L 2.927,3.438 L 2.820,3.474 L 2.718,3.511 L 2.624,3.552 L 2.534,3.593 L 2.451,3.636 L 2.375,3.680 L 2.306,3.726 L 2.241,3.772 L 2.185,3.818 L 2.137,3.867 L 2.095,3.916 L 2.061,3.966 L 2.034,4.016 L 2.015,4.067 L 2.004,4.117 L 2.000,4.170 L 2.000,4.170 L 2.004,4.220 L 2.015,4.270 L 2.034,4.322 L 2.061,4.372 L 2.095,4.422 L 2.137,4.471 L 2.185,4.519 L 2.241,4.566 L 2.306,4.612 L 2.375,4.659 L 2.451,4.703 L 2.534,4.745 L 2.624,4.786 L 2.718,4.827 L 2.820,4.864 L 2.927,4.900 L 3.040,4.934 L 3.158,4.967 L 3.278,4.996 L 3.404,5.025 L 3.535,5.051 L 3.669,5.074 L 3.806,5.095 L 3.946,5.114 L 4.089,5.131 L 4.235,5.144 L 4.382,5.157 L 4.530,5.165 L 4.681,5.171 L 4.831,5.176 L 4.982,5.177 L 4.982,5.177 L 5.133,5.176 L 5.285,5.171 L 5.434,5.165 L 5.583,5.157 L 5.730,5.144 L 5.877,5.131 L 6.019,5.114 L 6.158,5.095 L 6.296,5.074 L 6.430,5.051 L 6.561,5.025 L 6.687,4.996 L 6.808,4.967 L 6.924,4.934 L 7.037,4.900 L 7.144,4.864 L 7.247,4.827 L 7.341,4.786 L 7.431,4.745 L 7.513,4.703 L 7.590,4.659 L 7.660,4.612 L 7.723,4.566 L 7.780,4.519 L 7.827,4.471 L 7.870,4.422 L 7.905,4.372 L 7.931,4.322 L 7.950,4.270 L 7.961,4.220 L 7.965,4.170 "/>
<path stroke="none" fill="#A5A585" stroke-width="0.001" d="M 2.000,2.044 L 2.000,4.204 L 7.965,4.204 L 7.965,2.044 L 2.000,2.044 "/>
<path stroke="none" fill="#C9C9B6" stroke-width="0.001" d="M 8.000,2.026 L 7.996,1.972 L 7.984,1.921 L 7.965,1.870 L 7.938,1.819 L 7.904,1.768 L 7.862,1.718 L 7.813,1.668 L 7.757,1.621 L 7.693,1.574 L 7.622,1.527 L 7.545,1.483 L 7.463,1.439 L 7.372,1.397 L 7.276,1.357 L 7.174,1.319 L 7.066,1.281 L 6.954,1.247 L 6.836,1.215 L 6.714,1.184 L 6.586,1.155 L 6.456,1.129 L 6.321,1.105 L 6.182,1.083 L 6.042,1.063 L 5.898,1.047 L 5.751,1.033 L 5.604,1.021 L 5.454,1.012 L 5.303,1.005 L 5.152,1.001 L 5.000,1.000 L 5.000,1.000 L 4.848,1.001 L 4.696,1.005 L 4.545,1.012 L 4.395,1.021 L 4.248,1.033 L 4.101,1.047 L 3.958,1.063 L 3.817,1.083 L 3.679,1.105 L 3.543,1.129 L 3.413,1.155 L 3.286,1.184 L 3.164,1.215 L 3.046,1.247 L 2.933,1.281 L 2.825,1.319 L 2.724,1.357 L 2.628,1.397 L 2.537,1.439 L 2.454,1.483 L 2.377,1.527 L 2.306,1.574 L 2.242,1.621 L 2.186,1.668 L 2.137,1.718 L 2.095,1.768 L 2.061,1.819 L 2.034,1.870 L 2.015,1.921 L 2.004,1.972 L 2.000,2.026 L 2.000,2.026 L 2.004,2.077 L 2.015,2.130 L 2.034,2.180 L 2.061,2.232 L 2.095,2.282 L 2.137,2.333 L 2.186,2.382 L 2.242,2.430 L 2.306,2.477 L 2.377,2.523 L 2.454,2.568 L 2.537,2.611 L 2.628,2.653 L 2.724,2.693 L 2.825,2.733 L 2.933,2.769 L 3.046,2.804 L 3.164,2.837 L 3.286,2.867 L 3.413,2.896 L 3.543,2.923 L 3.679,2.946 L 3.817,2.969 L 3.958,2.987 L 4.101,3.004 L 4.248,3.019 L 4.395,3.029 L 4.545,3.039 L 4.696,3.046 L 4.848,3.050 L 5.000,3.051 L 5.000,3.051 L 5.152,3.050 L 5.303,3.046 L 5.454,3.039 L 5.604,3.029 L 5.751,3.019 L 5.898,3.004 L 6.042,2.987 L 6.182,2.969 L 6.321,2.946 L 6.456,2.923 L 6.586,2.896 L 6.714,2.867 L 6.836,2.837 L 6.954,2.804 L 7.066,2.769 L 7.174,2.733 L 7.276,2.693 L 7.372,2.653 L 7.463,2.611 L 7.545,2.568 L 7.622,2.523 L 7.693,2.477 L 7.757,2.430 L 7.813,2.382 L 7.862,2.333 L 7.904,2.282 L 7.938,2.232 L 7.965,2.180 L 7.984,2.130 L 7.996,2.077 L 8.000,2.026 "/>
<path stroke="#494936" fill="none" stroke-width="0.001"  d="M 7.965,2.009 L 7.961,1.957 L 7.950,1.907 L 7.931,1.857 L 7.905,1.806 L 7.870,1.755 L 7.827,1.706 L 7.780,1.659 L 7.723,1.611 L 7.660,1.565 L 7.590,1.519 L 7.513,1.476 L 7.431,1.433 L 7.341,1.391 L 7.247,1.352 L 7.144,1.314 L 7.037,1.279 L 6.924,1.244 L 6.808,1.211 L 6.687,1.181 L 6.561,1.153 L 6.430,1.128 L 6.296,1.104 L 6.158,1.083 L 6.019,1.063 L 5.877,1.047 L 5.730,1.033 L 5.583,1.021 L 5.434,1.012 L 5.384,1.010 L 4.580,1.010 L 4.530,1.012 L 4.382,1.021 L 4.235,1.033 L 4.089,1.047 L 3.946,1.063 L 3.806,1.083 L 3.669,1.104 L 3.535,1.128 L 3.404,1.153 L 3.278,1.181 L 3.158,1.211 L 3.040,1.244 L 2.927,1.279 L 2.820,1.314 L 2.718,1.352 L 2.624,1.391 L 2.534,1.433 L 2.451,1.476 L 2.375,1.519 L 2.306,1.565 L 2.241,1.611 L 2.185,1.659 L 2.137,1.706 L 2.095,1.755 L 2.061,1.806 L 2.034,1.857 L 2.015,1.907 L 2.004,1.957 L 2.000,2.009 L 2.000,2.009 L 2.004,2.059 L 2.015,2.111 L 2.034,2.162 L 2.061,2.212 L 2.095,2.262 L 2.137,2.311 L 2.185,2.358 L 2.241,2.407 L 2.306,2.452 L 2.375,2.498 L 2.451,2.543 L 2.534,2.584 L 2.624,2.625 L 2.718,2.666 L 2.820,2.704 L 2.927,2.739 L 3.040,2.773 L 3.158,2.806 L 3.278,2.835 L 3.404,2.864 L 3.535,2.891 L 3.669,2.912 L 3.806,2.935 L 3.946,2.953 L 4.089,2.970 L 4.235,2.985 L 4.382,2.996 L 4.530,3.005 L 4.681,3.011 L 4.831,3.014 L 4.982,3.017 L 4.982,3.017 L 5.133,3.014 L 5.285,3.011 L 5.434,3.005 L 5.583,2.996 L 5.730,2.985 L 5.877,2.970 L 6.019,2.953 L 6.158,2.935 L 6.296,2.912 L 6.430,2.891 L 6.561,2.864 L 6.687,2.835 L 6.808,2.806 L 6.924,2.773 L 7.037,2.739 L 7.144,2.704 L 7.247,2.666 L 7.341,2.625 L 7.431,2.584 L 7.513,2.543 L 7.590,2.498 L 7.660,2.452 L 7.723,2.407 L 7.780,2.358 L 7.827,2.311 L 7.870,2.262 L 7.905,2.212 L 7.931,2.162 L 7.950,2.111 L 7.961,2.059 L 7.965,2.009 "/>
<path stroke="#000000" fill="none" stroke-width="0.001"  d="M 2.000,2.009 L 2.000,4.168 "/>
<path stroke="#000000" fill="none" stroke-width="0.001"  d="M 7.965,2.009 L 7.965,4.168 "/>
<path stroke="none" fill="#B7B79D" stroke-width="0.001" d="M 13.000,17.426 L 16.617,17.426 L 16.617,18.095 L 13.000,18.095 L 13.000,17.426 "/>
<path stroke="#494936" fill="none" stroke-width="0.001"  d="M 13.000,17.426 L 16.617,17.426 L 16.617,18.095 L 13.000,18.095 L 13.000,17.426 "/>
<path stroke="none" fill="#C9C9B6" stroke-width="0.001" d="M 13.000,17.426 L 13.383,17.063 L 17.000,17.063 L 16.617,17.426 L 13.000,17.426 "/>
<path stroke="#494936" fill="none" stroke-width="0.001"  d="M 13.000,17.426 L 13.383,17.063 L 17.000,17.063 L 16.617,17.426 L 13.000,17.426 "/>
<path stroke="#000000" fill="none" stroke-width="0.106"  d="M 16.414,17.730 L 15.546,17.730 "/>
<path stroke="none" fill="#7A7A5A" stroke-width="0.001" d="M 16.617,18.095 L 17.000,17.710 L 17.000,17.063 L 16.617,17.426 L 16.617,18.095 "/>
<path stroke="#494936" fill="none" stroke-width="0.001"  d="M 16.617,18.095 L 17.000,17.710 L 17.000,17.063 L 16.617,17.426 L 16.617,18.095 "/>
<path stroke="none" fill="#C9C9B6" stroke-width="0.001" d="M 13.021,18.519 L 13.424,18.013 L 16.213,18.013 L 15.809,18.519 L 13.021,18.519 "/>
<path stroke="#494936" fill="none" stroke-width="0.001"  d="M 13.021,18.519 L 13.424,18.013 L 16.213,18.013 L 15.809,18.519 L 13.021,18.519 "/>
<path stroke="none" fill="#7A7A5A" stroke-width="0.001" d="M 15.809,18.619 L 16.213,18.195 L 16.213,18.013 L 15.809,18.519 L 15.809,18.619 "/>
<path stroke="#494936" fill="none" stroke-width="0.001"  d="M 15.809,18.619 L 16.213,18.195 L 16.213,18.013 L 15.809,18.519 L 15.809,18.619 "/>
<path stroke="none" fill="#B7B79D" stroke-width="0.001" d="M 13.021,18.519 L 15.809,18.519 L 15.809,18.619 L 13.021,18.619 L 13.021,18.519 "/>
<path stroke="#494936" fill="none" stroke-width="0.001"  d="M 13.021,18.519 L 15.809,18.519 L 15.809,18.619 L 13.021,18.619 L 13.021,18.519 "/>
<path stroke="none" fill="#000000" stroke-width="0.001" d="M 13.545,17.346 L 13.849,17.063 L 16.414,17.063 L 16.132,17.346 L 13.545,17.346 "/>
<path stroke="#000000" fill="none" stroke-width="0.001"  d="M 13.545,17.346 L 13.849,17.063 L 16.414,17.063 L 16.132,17.346 L 13.545,17.346 "/>
<path stroke="none" fill="#C9C9B6" stroke-width="0.001" d="M 13.525,15.263 L 13.809,15.000 L 16.375,15.000 L 16.091,15.263 L 13.525,15.263 "/>
<path stroke="#494936" fill="none" stroke-width="0.001"  d="M 13.525,15.263 L 13.809,15.000 L 16.375,15.000 L 16.091,15.263 L 13.525,15.263 "/>
<path stroke="none" fill="#B7B79D" stroke-width="0.001" d="M 13.525,15.263 L 16.112,15.263 L 16.112,17.305 L 13.525,17.305 L 13.525,15.263 "/>
<path stroke="#494936" fill="none" stroke-width="0.001"  d="M 13.525,15.263 L 16.111,15.263 L 16.111,17.304 L 13.525,17.304 L 13.525,15.263 "/>
<path stroke="none" fill="#FFFFFF" stroke-width="0.001" d="M 13.747,15.525 L 15.889,15.525 L 15.889,17.103 L 13.747,17.103 L 13.747,15.525 "/>
<path stroke="#494936" fill="none" stroke-width="0.001"  d="M 13.747,15.525 L 15.889,15.525 L 15.889,17.102 L 13.747,17.102 L 13.747,15.525 "/>
<path stroke="none" fill="#7A7A5A" stroke-width="0.001" d="M 16.091,17.285 L 16.375,17.002 L 16.375,15.000 L 16.091,15.263 L 16.091,17.285 "/>
<path stroke="#494936" fill="none" stroke-width="0.001"  d="M 16.091,17.285 L 16.375,17.002 L 16.375,15.000 L 16.091,15.263 L 16.091,17.285 "/>
<path stroke="none" fill="#A5A585" stroke-width="0.001" d="M 18.000,4.186 L 17.996,4.134 L 17.984,4.082 L 17.965,4.030 L 17.938,3.980 L 17.904,3.929 L 17.862,3.879 L 17.813,3.830 L 17.757,3.781 L 17.693,3.734 L 17.622,3.689 L 17.545,3.644 L 17.463,3.599 L 17.372,3.558 L 17.276,3.517 L 17.174,3.479 L 17.066,3.442 L 16.954,3.408 L 16.836,3.375 L 16.714,3.345 L 16.586,3.316 L 16.456,3.289 L 16.321,3.265 L 16.182,3.242 L 16.042,3.223 L 15.898,3.207 L 15.751,3.193 L 15.604,3.181 L 15.454,3.173 L 15.303,3.165 L 15.152,3.160 L 15.000,3.160 L 15.000,3.160 L 14.848,3.160 L 14.696,3.165 L 14.545,3.173 L 14.395,3.181 L 14.248,3.193 L 14.101,3.207 L 13.958,3.223 L 13.817,3.242 L 13.679,3.265 L 13.543,3.289 L 13.413,3.316 L 13.286,3.345 L 13.164,3.375 L 13.046,3.408 L 12.933,3.442 L 12.825,3.479 L 12.724,3.517 L 12.628,3.558 L 12.537,3.599 L 12.454,3.644 L 12.377,3.689 L 12.306,3.734 L 12.242,3.781 L 12.186,3.830 L 12.137,3.879 L 12.095,3.929 L 12.061,3.980 L 12.034,4.030 L 12.015,4.082 L 12.004,4.134 L 12.000,4.186 L 12.000,4.186 L 12.004,4.238 L 12.015,4.289 L 12.034,4.342 L 12.061,4.392 L 12.095,4.443 L 12.137,4.493 L 12.186,4.542 L 12.242,4.591 L 12.306,4.637 L 12.377,4.683 L 12.454,4.728 L 12.537,4.773 L 12.628,4.814 L 12.724,4.854 L 12.825,4.893 L 12.933,4.930 L 13.046,4.964 L 13.164,4.997 L 13.286,5.027 L 13.413,5.056 L 13.543,5.083 L 13.679,5.107 L 13.817,5.129 L 13.958,5.149 L 14.101,5.165 L 14.248,5.179 L 14.395,5.190 L 14.545,5.199 L 14.696,5.206 L 14.848,5.211 L 15.000,5.212 L 15.000,5.212 L 15.152,5.211 L 15.303,5.206 L 15.454,5.199 L 15.604,5.190 L 15.751,5.179 L 15.898,5.165 L 16.042,5.149 L 16.182,5.129 L 16.321,5.107 L 16.456,5.083 L 16.586,5.056 L 16.714,5.027 L 16.836,4.997 L 16.954,4.964 L 17.066,4.930 L 17.174,4.893 L 17.276,4.854 L 17.372,4.814 L 17.463,4.773 L 17.545,4.728 L 17.622,4.683 L 17.693,4.637 L 17.757,4.591 L 17.813,4.542 L 17.862,4.493 L 17.904,4.443 L 17.938,4.392 L 17.965,4.342 L 17.984,4.289 L 17.996,4.238 L 18.000,4.186 "/>
<path stroke="#494936" fill="none" stroke-width="0.001"  d="M 17.965,4.170 L 17.961,4.117 L 17.950,4.067 L 17.931,4.016 L 17.905,3.966 L 17.870,3.916 L 17.827,3.867 L 17.780,3.818 L 17.723,3.772 L 17.660,3.726 L 17.590,3.680 L 17.513,3.636 L 17.431,3.593 L 17.341,3.552 L 17.247,3.511 L 17.144,3.474 L 17.037,3.438 L 16.924,3.404 L 16.808,3.372 L 16.687,3.342 L 16.561,3.313 L 16.430,3.288 L 16.296,3.264 L 16.158,3.242 L 16.019,3.223 L 15.877,3.207 L 15.730,3.194 L 15.583,3.181 L 15.434,3.173 L 15.285,3.167 L 15.133,3.163 L 14.982,3.160 L 14.982,3.160 L 14.831,3.163 L 14.681,3.167 L 14.530,3.173 L 14.382,3.181 L 14.235,3.194 L 14.089,3.207 L 13.946,3.223 L 13.806,3.242 L 13.669,3.264 L 13.535,3.288 L 13.404,3.313 L 13.278,3.342 L 13.158,3.372 L 13.040,3.404 L 12.927,3.438 L 12.820,3.474 L 12.718,3.511 L 12.624,3.552 L 12.534,3.593 L 12.451,3.636 L 12.375,3.680 L 12.306,3.726 L 12.241,3.772 L 12.185,3.818 L 12.137,3.867 L 12.095,3.916 L 12.061,3.966 L 12.034,4.016 L 12.015,4.067 L 12.004,4.117 L 12.000,4.170 L 12.000,4.170 L 12.004,4.220 L 12.015,4.270 L 12.034,4.322 L 12.061,4.372 L 12.095,4.422 L 12.137,4.471 L 12.185,4.519 L 12.241,4.566 L 12.306,4.612 L 12.375,4.659 L 12.451,4.703 L 12.534,4.745 L 12.624,4.786 L 12.718,4.827 L 12.820,4.864 L 12.927,4.900 L 13.040,4.934 L 13.158,4.967 L 13.278,4.996 L 13.404,5.025 L 13.535,5.051 L 13.669,5.074 L 13.806,5.095 L 13.946,5.114 L 14.089,5.131 L 14.235,5.144 L 14.382,5.157 L 14.530,5.165 L 14.681,5.171 L 14.831,5.176 L 14.982,5.177 L 14.982,5.177 L 15.133,5.176 L 15.285,5.171 L 15.434,5.165 L 15.583,5.157 L 15.730,5.144 L 15.877,5.131 L 16.019,5.114 L 16.158,5.095 L 16.296,5.074 L 16.430,5.051 L 16.561,5.025 L 16.687,4.996 L 16.808,4.967 L 16.924,4.934 L 17.037,4.900 L 17.144,4.864 L 17.247,4.827 L 17.341,4.786 L 17.431,4.745 L 17.513,4.703 L 17.590,4.659 L 17.660,4.612 L 17.723,4.566 L 17.780,4.519 L 17.827,4.471 L 17.870,4.422 L 17.905,4.372 L 17.931,4.322 L 17.950,4.270 L 17.961,4.220 L 17.965,4.170 "/>
<path stroke="none" fill="#A5A585" stroke-width="0.001" d="M 12.000,2.044 L 12.000,4.204 L 17.965,4.204 L 17.965,2.044 L 12.000,2.044 "/>
<path stroke="none" fill="#C9C9B6" stroke-width="0.001" d="M 18.000,2.026 L 17.996,1.972 L 17.984,1.921 L 17.965,1.870 L 17.938,1.819 L 17.904,1.768 L 17.862,1.718 L 17.813,1.668 L 17.757,1.621 L 17.693,1.574 L 17.622,1.527 L 17.545,1.483 L 17.463,1.439 L 17.372,1.397 L 17.276,1.357 L 17.174,1.319 L 17.066,1.281 L 16.954,1.247 L 16.836,1.215 L 16.714,1.184 L 16.586,1.155 L 16.456,1.129 L 16.321,1.105 L 16.182,1.083 L 16.042,1.063 L 15.898,1.047 L 15.751,1.033 L 15.604,1.021 L 15.454,1.012 L 15.303,1.005 L 15.152,1.001 L 15.000,1.000 L 15.000,1.000 L 14.848,1.001 L 14.696,1.005 L 14.545,1.012 L 14.395,1.021 L 14.248,1.033 L 14.101,1.047 L 13.958,1.063 L 13.817,1.083 L 13.679,1.105 L 13.543,1.129 L 13.413,1.155 L 13.286,1.184 L 13.164,1.215 L 13.046,1.247 L 12.933,1.281 L 12.825,1.319 L 12.724,1.357 L 12.628,1.397 L 12.537,1.439 L 12.454,1.483 L 12.377,1.527 L 12.306,1.574 L 12.242,1.621 L 12.186,1.668 L 12.137,1.718 L 12.095,1.768 L 12.061,1.819 L 12.034,1.870 L 12.015,1.921 L 12.004,1.972 L 12.000,2.026 L 12.000,2.026 L 12.004,2.077 L 12.015,2.130 L 12.034,2.180 L 12.061,2.232 L 12.095,2.282 L 12.137,2.333 L 12.186,2.382 L 12.242,2.430 L 12.306,2.477 L 12.377,2.523 L 12.454,2.568 L 12.537,2.611 L 12.628,2.653 L 12.724,2.693 L 12.825,2.733 L 12.933,2.769 L 13.046,2.804 L 13.164,2.837 L 13.286,2.867 L 13.413,2.896 L 13.543,2.923 L 13.679,2.946 L 13.817,2.969 L 13.958,2.987 L 14.101,3.004 L 14.248,3.019 L 14.395,3.029 L 14.545,3.039 L 14.696,3.046 L 14.848,3.050 L 15.000,3.051 L 15.000,3.051 L 15.152,3.050 L 15.303,3.046 L 15.454,3.039 L 15.604,3.029 L 15.751,3.019 L 15.898,3.004 L 16.042,2.987 L 16.182,2.969 L 16.321,2.946 L 16.456,2.923 L 16.586,2.896 L 16.714,2.867 L 16.836,2.837 L 16.954,2.804 L 17.066,2.769 L 17.174,2.733 L 17.276,2.693 L 17.372,2.653 L 17.463,2.611 L 17.545,2.568 L 17.622,2.523 L 17.693,2.477 L 17.757,2.430 L 17.813,2.382 L 17.862,2.333 L 17.904,2.282 L 17.938,2.232 L 17.965,2.180 L 17.984,2.130 L 17.996,2.077 L 18.000,2.026 "/>
<path stroke="#494936" fill="none" stroke-width="0.001"  d="M 17.965,2.009 L 17.961,1.957 L 17.950,1.907 L 17.931,1.857 L 17.905,1.806 L 17.870,1.755 L 17.827,1.706 L 17.780,1.659 L 17.723,1.611 L 17.660,1.565 L 17.590,1.519 L 17.513,1.476 L 17.431,1.433 L 17.341,1.391 L 17.247,1.352 L 17.144,1.314 L 17.037,1.279 L 16.924,1.244 L 16.808,1.211 L 16.687,1.181 L 16.561,1.153 L 16.430,1.128 L 16.296,1.104 L 16.158,1.083 L 16.019,1.063 L 15.877,1.047 L 15.730,1.033 L 15.583,1.021 L 15.434,1.012 L 15.384,1.010 L 14.580,1.010 L 14.530,1.012 L 14.382,1.021 L 14.235,1.033 L 14.089,1.047 L 13.946,1.063 L 13.806,1.083 L 13.669,1.104 L 13.535,1.128 L 13.404,1.153 L 13.278,1.181 L 13.158,1.211 L 13.040,1.244 L 12.927,1.279 L 12.820,1.314 L 12.718,1.352 L 12.624,1.391 L 12.534,1.433 L 12.451,1.476 L 12.375,1.519 L 12.306,1.565 L 12.241,1.611 L 12.185,1.659 L 12.137,1.706 L 12.095,1.755 L 12.061,1.806 L 12.034,1.857 L 12.015,1.907 L 12.004,1.957 L 12.000,2.009 L 12.000,2.009 L 12.004,2.059 L 12.015,2.111 L 12.034,2.162 L 12.061,2.212 L 12.095,2.262 L 12.137,2.311 L 12.185,2.358 L 12.241,2.407 L 12.306,2.452 L 12.375,2.498 L 12.451,2.543 L 12.534,2.584 L 12.624,2.625 L 12.718,2.666 L 12.820,2.704 L 12.927,2.739 L 13.040,2.773 L 13.158,2.806 L 13.278,2.835 L 13.404,2.864 L 13.535,2.891 L 13.669,2.912 L 13.806,2.935 L 13.946,2.953 L 14.089,2.970 L 14.235,2.985 L 14.382,2.996 L 14.530,3.005 L 14.681,3.011 L 14.831,3.014 L 14.982,3.017 L 14.982,3.017 L 15.133,3.014 L 15.285,3.011 L 15.434,3.005 L 15.583,2.996 L 15.730,2.985 L 15.877,2.970 L 16.019,2.953 L 16.158,2.935 L 16.296,2.912 L 16.430,2.891 L 16.561,2.864 L 16.687,2.835 L 16.808,2.806 L 16.924,2.773 L 17.037,2.739 L 17.144,2.704 L 17.247,2.666 L 17.341,2.625 L 17.431,2.584 L 17.513,2.543 L 17.590,2.498 L 17.660,2.452 L 17.723,2.407 L 17.780,2.358 L 17.827,2.311 L 17.870,2.262 L 17.905,2.212 L 17.931,2.162 L 17.950,2.111 L 17.961,2.059 L 17.965,2.009 "/>
<path stroke="#000000" fill="none" stroke-width="0.001"  d="M 12.000,2.009 L 12.000,4.168 "/>
<path stroke="#000000" fill="none" stroke-width="0.001"  d="M 17.965,2.009 L 17.965,4.168 "/>
<path stroke="none" fill="#A5A585" stroke-width="0.001" d="M 28.000,4.186 L 27.996,4.134 L 27.984,4.082 L 27.965,4.030 L 27.938,3.980 L 27.904,3.929 L 27.862,3.879 L 27.813,3.830 L 27.757,3.781 L 27.693,3.734 L 27.622,3.689 L 27.545,3.644 L 27.463,3.599 L 27.372,3.558 L 27.276,3.517 L 27.174,3.479 L 27.066,3.442 L 26.954,3.408 L 26.836,3.375 L 26.714,3.345 L 26.586,3.316 L 26.456,3.289 L 26.321,3.265 L 26.182,3.242 L 26.042,3.223 L 25.898,3.207 L 25.751,3.193 L 25.604,3.181 L 25.454,3.173 L 25.303,3.165 L 25.152,3.160 L 25.000,3.160 L 25.000,3.160 L 24.848,3.160 L 24.696,3.165 L 24.545,3.173 L 24.395,3.181 L 24.248,3.193 L 24.101,3.207 L 23.958,3.223 L 23.817,3.242 L 23.679,3.265 L 23.543,3.289 L 23.413,3.316 L 23.286,3.345 L 23.164,3.375 L 23.046,3.408 L 22.933,3.442 L 22.825,3.479 L 22.724,3.517 L 22.628,3.558 L 22.537,3.599 L 22.454,3.644 L 22.377,3.689 L 22.306,3.734 L 22.242,3.781 L 22.186,3.830 L 22.137,3.879 L 22.095,3.929 L 22.061,3.980 L 22.034,4.030 L 22.015,4.082 L 22.004,4.134 L 22.000,4.186 L 22.000,4.186 L 22.004,4.238 L 22.015,4.289 L 22.034,4.342 L 22.061,4.392 L 22.095,4.443 L 22.137,4.493 L 22.186,4.542 L 22.242,4.591 L 22.306,4.637 L 22.377,4.683 L 22.454,4.728 L 22.537,4.773 L 22.628,4.814 L 22.724,4.854 L 22.825,4.893 L 22.933,4.930 L 23.046,4.964 L 23.164,4.997 L 23.286,5.027 L 23.413,5.056 L 23.543,5.083 L 23.679,5.107 L 23.817,5.129 L 23.958,5.149 L 24.101,5.165 L 24.248,5.179 L 24.395,5.190 L 24.545,5.199 L 24.696,5.206 L 24.848,5.211 L 25.000,5.212 L 25.000,5.212 L 25.152,5.211 L 25.303,5.206 L 25.454,5.199 L 25.604,5.190 L 25.751,5.179 L 25.898,5.165 L 26.042,5.149 L 26.182,5.129 L 26.321,5.107 L 26.456,5.083 L 26.586,5.056 L 26.714,5.027 L 26.836,4.997 L 26.954,4.964 L 27.066,4.930 L 27.174,4.893 L 27.276,4.854 L 27.372,4.814 L 27.463,4.773 L 27.545,4.728 L 27.622,4.683 L 27.693,4.637 L 27.757,4.591 L 27.813,4.542 L 27.862,4.493 L 27.904,4.443 L 27.938,4.392 L 27.965,4.342 L 27.984,4.289 L 27.996,4.238 L 28.000,4.186 "/>
<path stroke="#494936" fill="none" stroke-width="0.001"  d="M 27.965,4.170 L 27.961,4.117 L 27.950,4.067 L 27.931,4.016 L 27.905,3.966 L 27.870,3.916 L 27.827,3.867 L 27.780,3.818 L 27.723,3.772 L 27.660,3.726 L 27.590,3.680 L 27.513,3.636 L 27.431,3.593 L 27.341,3.552 L 27.247,3.511 L 27.144,3.474 L 27.037,3.438 L 26.924,3.404 L 26.808,3.372 L 26.687,3.342 L 26.561,3.313 L 26.430,3.288 L 26.296,3.264 L 26.158,3.242 L 26.019,3.223 L 25.877,3.207 L 25.730,3.194 L 25.583,3.181 L 25.434,3.173 L 25.285,3.167 L 25.133,3.163 L 24.982,3.160 L 24.982,3.160 L 24.831,3.163 L 24.681,3.167 L 24.530,3.173 L 24.382,3.181 L 24.235,3.194 L 24.089,3.207 L 23.946,3.223 L 23.806,3.242 L 23.669,3.264 L 23.535,3.288 L 23.404,3.313 L 23.278,3.342 L 23.158,3.372 L 23.040,3.404 L 22.927,3.438 L 22.820,3.474 L 22.718,3.511 L 22.624,3.552 L 22.534,3.593 L 22.451,3.636 L 22.375,3.680 L 22.306,3.726 L 22.241,3.772 L 22.185,3.818 L 22.137,3.867 L 22.095,3.916 L 22.061,3.966 L 22.034,4.016 L 22.015,4.067 L 22.004,4.117 L 22.000,4.170 L 22.000,4.170 L 22.004,4.220 L 22.015,4.270 L 22.034,4.322 L 22.061,4.372 L 22.095,4.422 L 22.137,4.471 L 22.185,4.519 L 22.241,4.566 L 22.306,4.612 L 22.375,4.659 L 22.451,4.703 L 22.534,4.745 L 22.624,4.786 L 22.718,4.827 L 22.820,4.864 L 22.927,4.900 L 23.040,4.934 L 23.158,4.967 L 23.278,4.996 L 23.404,5.025 L 23.535,5.051 L 23.669,5.074 L 23.806,5.095 L 23.946,5.114 L 24.089,5.131 L 24.235,5.144 L 24.382,5.157 L 24.530,5.165 L 24.681,5.171 L 24.831,5.176 L 24.982,5.177 L 24.982,5.177 L 25.133,5.176 L 25.285,5.171 L 25.434,5.165 L 25.583,5.157 L 25.730,5.144 L 25.877,5.131 L 26.019,5.114 L 26.158,5.095 L 26.296,5.074 L 26.430,5.051 L 26.561,5.025 L 26.687,4.996 L 26.808,4.967 L 26.924,4.934 L 27.037,4.900 L 27.144,4.864 L 27.247,4.827 L 27.341,4.786 L 27.431,4.745 L 27.513,4.703 L 27.590,4.659 L 27.660,4.612 L 27.723,4.566 L 27.780,4.519 L 27.827,4.471 L 27.870,4.422 L 27.905,4.372 L 27.931,4.322 L 27.950,4.270 L 27.961,4.220 L 27.965,4.170 "/>
<path stroke="none" fill="#A5A585" stroke-width="0.001" d="M 22.000,2.044 L 22.000,4.204 L 27.965,4.204 L 27.965,2.044 L 22.000,2.044 "/>
<path stroke="none" fill="#C9C9B6" stroke-width="0.001" d="M 28.000,2.026 L 27.996,1.972 L 27.984,1.921 L 27.965,1.870 L 27.938,1.819 L 27.904,1.768 L 27.862,1.718 L 27.813,1.668 L 27.757,1.621 L 27.693,1.574 L 27.622,1.527 L 27.545,1.483 L 27.463,1.439 L 27.372,1.397 L 27.276,1.357 L 27.174,1.319 L 27.066,1.281 L 26.954,1.247 L 26.836,1.215 L 26.714,1.184 L 26.586,1.155 L 26.456,1.129 L 26.321,1.105 L 26.182,1.083 L 26.042,1.063 L 25.898,1.047 L 25.751,1.033 L 25.604,1.021 L 25.454,1.012 L 25.303,1.005 L 25.152,1.001 L 25.000,1.000 L 25.000,1.000 L 24.848,1.001 L 24.696,1.005 L 24.545,1.012 L 24.395,1.021 L 24.248,1.033 L 24.101,1.047 L 23.958,1.063 L 23.817,1.083 L 23.679,1.105 L 23.543,1.129 L 23.413,1.155 L 23.286,1.184 L 23.164,1.215 L 23.046,1.247 L 22.933,1.281 L 22.825,1.319 L 22.724,1.357 L 22.628,1.397 L 22.537,1.439 L 22.454,1.483 L 22.377,1.527 L 22.306,1.574 L 22.242,1.621 L 22.186,1.668 L 22.137,1.718 L 22.095,1.768 L 22.061,1.819 L 22.034,1.870 L 22.015,1.921 L 22.004,1.972 L 22.000,2.026 L 22.000,2.026 L 22.004,2.077 L 22.015,2.130 L 22.034,2.180 L 22.061,2.232 L 22.095,2.282 L 22.137,2.333 L 22.186,2.382 L 22.242,2.430 L 22.306,2.477 L 22.377,2.523 L 22.454,2.568 L 22.537,2.611 L 22.628,2.653 L 22.724,2.693 L 22.825,2.733 L 22.933,2.769 L 23.046,2.804 L 23.164,2.837 L 23.286,2.867 L 23.413,2.896 L 23.543,2.923 L 23.679,2.946 L 23.817,2.969 L 23.958,2.987 L 24.101,3.004 L 24.248,3.019 L 24.395,3.029 L 24.545,3.039 L 24.696,3.046 L 24.848,3.050 L 25.000,3.051 L 25.000,3.051 L 25.152,3.050 L 25.303,3.046 L 25.454,3.039 L 25.604,3.029 L 25.751,3.019 L 25.898,3.004 L 26.042,2.987 L 26.182,2.969 L 26.321,2.946 L 26.456,2.923 L 26.586,2.896 L 26.714,2.867 L 26.836,2.837 L 26.954,2.804 L 27.066,2.769 L 27.174,2.733 L 27.276,2.693 L 27.372,2.653 L 27.463,2.611 L 27.545,2.568 L 27.622,2.523 L 27.693,2.477 L 27.757,2.430 L 27.813,2.382 L 27.862,2.333 L 27.904,2.282 L 27.938,2.232 L 27.965,2.180 L 27.984,2.130 L 27.996,2.077 L 28.000,2.026 "/>
<path stroke="#494936" fill="none" stroke-width="0.001"  d="M 27.965,2.009 L 27.961,1.957 L 27.950,1.907 L 27.931,1.857 L 27.905,1.806 L 27.870,1.755 L 27.827,1.706 L 27.780,1.659 L 27.723,1.611 L 27.660,1.565 L 27.590,1.519 L 27.513,1.476 L 27.431,1.433 L 27.341,1.391 L 27.247,1.352 L 27.144,1.314 L 27.037,1.279 L 26.924,1.244 L 26.808,1.211 L 26.687,1.181 L 26.561,1.153 L 26.430,1.128 L 26.296,1.104 L 26.158,1.083 L 26.019,1.063 L 25.877,1.047 L 25.730,1.033 L 25.583,1.021 L 25.434,1.012 L 25.384,1.010 L 24.580,1.010 L 24.530,1.012 L 24.382,1.021 L 24.235,1.033 L 24.089,1.047 L 23.946,1.063 L 23.806,1.083 L 23.669,1.104 L 23.535,1.128 L 23.404,1.153 L 23.278,1.181 L 23.158,1.211 L 23.040,1.244 L 22.927,1.279 L 22.820,1.314 L 22.718,1.352 L 22.624,1.391 L 22.534,1.433 L 22.451,1.476 L 22.375,1.519 L 22.306,1.565 L 22.241,1.611 L 22.185,1.659 L 22.137,1.706 L 22.095,1.755 L 22.061,1.806 L 22.034,1.857 L 22.015,1.907 L 22.004,1.957 L 22.000,2.009 L 22.000,2.009 L 22.004,2.059 L 22.015,2.111 L 22.034,2.162 L 22.061,2.212 L 22.095,2.262 L 22.137,2.311 L 22.185,2.358 L 22.241,2.407 L 22.306,2.452 L 22.375,2.498 L 22.451,2.543 L 22.534,2.584 L 22.624,2.625 L 22.718,2.666 L 22.820,2.704 L 22.927,2.739 L 23.040,2.773 L 23.158,2.806 L 23.278,2.835 L 23.404,2.864 L 23.535,2.891 L 23.669,2.912 L 23.806,2.935 L 23.946,2.953 L 24.089,2.970 L 24.235,2.985 L 24.382,2.996 L 24.530,3.005 L 24.681,3.011 L 24.831,3.014 L 24.982,3.017 L 24.982,3.017 L 25.133,3.014 L 25.285,3.011 L 25.434,3.005 L 25.583,2.996 L 25.730,2.985 L 25.877,2.970 L 26.019,2.953 L 26.158,2.935 L 26.296,2.912 L 26.430,2.891 L 26.561,2.864 L 26.687,2.835 L 26.808,2.806 L 26.924,2.773 L 27.037,2.739 L 27.144,2.704 L 27.247,2.666 L 27.341,2.625 L 27.431,2.584 L 27.513,2.543 L 27.590,2.498 L 27.660,2.452 L 27.723,2.407 L 27.780,2.358 L 27.827,2.311 L 27.870,2.262 L 27.905,2.212 L 27.931,2.162 L 27.950,2.111 L 27.961,2.059 L 27.965,2.009 "/>
<path stroke="#000000" fill="none" stroke-width="0.001"  d="M 22.000,2.009 L 22.000,4.168 "/>
<path stroke="#000000" fill="none" stroke-width="0.001"  d="M 27.965,2.009 L 27.965,4.168 "/>
<text x="15.000" y="20.000"  fill="#000000" text-anchor="middle" font-size="0.80" font-family="sans" font-style="normal" font-weight="400">
workstation-1.organization-1.edu.ee</text>
<path stroke="none" fill="#A5A585" stroke-width="0.001" d="M 28.000,13.186 L 27.996,13.134 L 27.984,13.082 L 27.965,13.030 L 27.938,12.980 L 27.904,12.929 L 27.862,12.879 L 27.813,12.830 L 27.757,12.781 L 27.693,12.734 L 27.622,12.689 L 27.545,12.644 L 27.463,12.599 L 27.372,12.558 L 27.276,12.517 L 27.174,12.479 L 27.066,12.442 L 26.954,12.408 L 26.836,12.375 L 26.714,12.345 L 26.586,12.316 L 26.456,12.289 L 26.321,12.265 L 26.182,12.242 L 26.042,12.223 L 25.898,12.207 L 25.751,12.193 L 25.604,12.181 L 25.454,12.173 L 25.303,12.165 L 25.152,12.160 L 25.000,12.160 L 25.000,12.160 L 24.848,12.160 L 24.696,12.165 L 24.545,12.173 L 24.395,12.181 L 24.248,12.193 L 24.101,12.207 L 23.958,12.223 L 23.817,12.242 L 23.679,12.265 L 23.543,12.289 L 23.413,12.316 L 23.286,12.345 L 23.164,12.375 L 23.046,12.408 L 22.933,12.442 L 22.825,12.479 L 22.724,12.517 L 22.628,12.558 L 22.537,12.599 L 22.454,12.644 L 22.377,12.689 L 22.306,12.734 L 22.242,12.781 L 22.186,12.830 L 22.137,12.879 L 22.095,12.929 L 22.061,12.980 L 22.034,13.030 L 22.015,13.082 L 22.004,13.134 L 22.000,13.186 L 22.000,13.186 L 22.004,13.238 L 22.015,13.289 L 22.034,13.342 L 22.061,13.392 L 22.095,13.443 L 22.137,13.493 L 22.186,13.542 L 22.242,13.591 L 22.306,13.637 L 22.377,13.683 L 22.454,13.728 L 22.537,13.773 L 22.628,13.814 L 22.724,13.854 L 22.825,13.893 L 22.933,13.930 L 23.046,13.964 L 23.164,13.997 L 23.286,14.027 L 23.413,14.056 L 23.543,14.083 L 23.679,14.107 L 23.817,14.129 L 23.958,14.149 L 24.101,14.165 L 24.248,14.179 L 24.395,14.190 L 24.545,14.199 L 24.696,14.206 L 24.848,14.211 L 25.000,14.212 L 25.000,14.212 L 25.152,14.211 L 25.303,14.206 L 25.454,14.199 L 25.604,14.190 L 25.751,14.179 L 25.898,14.165 L 26.042,14.149 L 26.182,14.129 L 26.321,14.107 L 26.456,14.083 L 26.586,14.056 L 26.714,14.027 L 26.836,13.997 L 26.954,13.964 L 27.066,13.930 L 27.174,13.893 L 27.276,13.854 L 27.372,13.814 L 27.463,13.773 L 27.545,13.728 L 27.622,13.683 L 27.693,13.637 L 27.757,13.591 L 27.813,13.542 L 27.862,13.493 L 27.904,13.443 L 27.938,13.392 L 27.965,13.342 L 27.984,13.289 L 27.996,13.238 L 28.000,13.186 "/>
<path stroke="#494936" fill="none" stroke-width="0.001"  d="M 27.965,13.170 L 27.961,13.117 L 27.950,13.067 L 27.931,13.016 L 27.905,12.966 L 27.870,12.916 L 27.827,12.867 L 27.780,12.818 L 27.723,12.772 L 27.660,12.726 L 27.590,12.680 L 27.513,12.636 L 27.431,12.593 L 27.341,12.552 L 27.247,12.511 L 27.144,12.474 L 27.037,12.438 L 26.924,12.404 L 26.808,12.372 L 26.687,12.342 L 26.561,12.313 L 26.430,12.288 L 26.296,12.264 L 26.158,12.242 L 26.019,12.223 L 25.877,12.207 L 25.730,12.194 L 25.583,12.181 L 25.434,12.173 L 25.285,12.167 L 25.133,12.163 L 24.982,12.160 L 24.982,12.160 L 24.831,12.163 L 24.681,12.167 L 24.530,12.173 L 24.382,12.181 L 24.235,12.194 L 24.089,12.207 L 23.946,12.223 L 23.806,12.242 L 23.669,12.264 L 23.535,12.288 L 23.404,12.313 L 23.278,12.342 L 23.158,12.372 L 23.040,12.404 L 22.927,12.438 L 22.820,12.474 L 22.718,12.511 L 22.624,12.552 L 22.534,12.593 L 22.451,12.636 L 22.375,12.680 L 22.306,12.726 L 22.241,12.772 L 22.185,12.818 L 22.137,12.867 L 22.095,12.916 L 22.061,12.966 L 22.034,13.016 L 22.015,13.067 L 22.004,13.117 L 22.000,13.170 L 22.000,13.170 L 22.004,13.220 L 22.015,13.270 L 22.034,13.322 L 22.061,13.372 L 22.095,13.422 L 22.137,13.471 L 22.185,13.519 L 22.241,13.566 L 22.306,13.612 L 22.375,13.659 L 22.451,13.703 L 22.534,13.745 L 22.624,13.786 L 22.718,13.827 L 22.820,13.864 L 22.927,13.900 L 23.040,13.934 L 23.158,13.967 L 23.278,13.996 L 23.404,14.025 L 23.535,14.051 L 23.669,14.074 L 23.806,14.095 L 23.946,14.114 L 24.089,14.131 L 24.235,14.144 L 24.382,14.157 L 24.530,14.165 L 24.681,14.171 L 24.831,14.176 L 24.982,14.177 L 24.982,14.177 L 25.133,14.176 L 25.285,14.171 L 25.434,14.165 L 25.583,14.157 L 25.730,14.144 L 25.877,14.131 L 26.019,14.114 L 26.158,14.095 L 26.296,14.074 L 26.430,14.051 L 26.561,14.025 L 26.687,13.996 L 26.808,13.967 L 26.924,13.934 L 27.037,13.900 L 27.144,13.864 L 27.247,13.827 L 27.341,13.786 L 27.431,13.745 L 27.513,13.703 L 27.590,13.659 L 27.660,13.612 L 27.723,13.566 L 27.780,13.519 L 27.827,13.471 L 27.870,13.422 L 27.905,13.372 L 27.931,13.322 L 27.950,13.270 L 27.961,13.220 L 27.965,13.170 "/>
<path stroke="none" fill="#A5A585" stroke-width="0.001" d="M 22.000,11.044 L 22.000,13.204 L 27.965,13.204 L 27.965,11.044 L 22.000,11.044 "/>
<path stroke="none" fill="#C9C9B6" stroke-width="0.001" d="M 28.000,11.026 L 27.996,10.972 L 27.984,10.921 L 27.965,10.870 L 27.938,10.819 L 27.904,10.768 L 27.862,10.718 L 27.813,10.668 L 27.757,10.621 L 27.693,10.574 L 27.622,10.527 L 27.545,10.483 L 27.463,10.439 L 27.372,10.397 L 27.276,10.357 L 27.174,10.319 L 27.066,10.281 L 26.954,10.247 L 26.836,10.215 L 26.714,10.184 L 26.586,10.155 L 26.456,10.129 L 26.321,10.105 L 26.182,10.083 L 26.042,10.063 L 25.898,10.047 L 25.751,10.033 L 25.604,10.021 L 25.454,10.012 L 25.303,10.005 L 25.152,10.001 L 25.000,10.000 L 25.000,10.000 L 24.848,10.001 L 24.696,10.005 L 24.545,10.012 L 24.395,10.021 L 24.248,10.033 L 24.101,10.047 L 23.958,10.063 L 23.817,10.083 L 23.679,10.105 L 23.543,10.129 L 23.413,10.155 L 23.286,10.184 L 23.164,10.215 L 23.046,10.247 L 22.933,10.281 L 22.825,10.319 L 22.724,10.357 L 22.628,10.397 L 22.537,10.439 L 22.454,10.483 L 22.377,10.527 L 22.306,10.574 L 22.242,10.621 L 22.186,10.668 L 22.137,10.718 L 22.095,10.768 L 22.061,10.819 L 22.034,10.870 L 22.015,10.921 L 22.004,10.972 L 22.000,11.026 L 22.000,11.026 L 22.004,11.077 L 22.015,11.130 L 22.034,11.180 L 22.061,11.232 L 22.095,11.282 L 22.137,11.333 L 22.186,11.382 L 22.242,11.430 L 22.306,11.477 L 22.377,11.523 L 22.454,11.568 L 22.537,11.611 L 22.628,11.653 L 22.724,11.693 L 22.825,11.733 L 22.933,11.769 L 23.046,11.804 L 23.164,11.837 L 23.286,11.867 L 23.413,11.896 L 23.543,11.923 L 23.679,11.946 L 23.817,11.969 L 23.958,11.987 L 24.101,12.004 L 24.248,12.019 L 24.395,12.029 L 24.545,12.039 L 24.696,12.046 L 24.848,12.050 L 25.000,12.051 L 25.000,12.051 L 25.152,12.050 L 25.303,12.046 L 25.454,12.039 L 25.604,12.029 L 25.751,12.019 L 25.898,12.004 L 26.042,11.987 L 26.182,11.969 L 26.321,11.946 L 26.456,11.923 L 26.586,11.896 L 26.714,11.867 L 26.836,11.837 L 26.954,11.804 L 27.066,11.769 L 27.174,11.733 L 27.276,11.693 L 27.372,11.653 L 27.463,11.611 L 27.545,11.568 L 27.622,11.523 L 27.693,11.477 L 27.757,11.430 L 27.813,11.382 L 27.862,11.333 L 27.904,11.282 L 27.938,11.232 L 27.965,11.180 L 27.984,11.130 L 27.996,11.077 L 28.000,11.026 "/>
<path stroke="#494936" fill="none" stroke-width="0.001"  d="M 27.965,11.009 L 27.961,10.957 L 27.950,10.907 L 27.931,10.857 L 27.905,10.806 L 27.870,10.755 L 27.827,10.706 L 27.780,10.659 L 27.723,10.611 L 27.660,10.565 L 27.590,10.519 L 27.513,10.476 L 27.431,10.433 L 27.341,10.391 L 27.247,10.352 L 27.144,10.314 L 27.037,10.279 L 26.924,10.244 L 26.808,10.211 L 26.687,10.181 L 26.561,10.153 L 26.430,10.128 L 26.296,10.104 L 26.158,10.083 L 26.019,10.063 L 25.877,10.047 L 25.730,10.033 L 25.583,10.021 L 25.434,10.012 L 25.384,10.010 L 24.580,10.010 L 24.530,10.012 L 24.382,10.021 L 24.235,10.033 L 24.089,10.047 L 23.946,10.063 L 23.806,10.083 L 23.669,10.104 L 23.535,10.128 L 23.404,10.153 L 23.278,10.181 L 23.158,10.211 L 23.040,10.244 L 22.927,10.279 L 22.820,10.314 L 22.718,10.352 L 22.624,10.391 L 22.534,10.433 L 22.451,10.476 L 22.375,10.519 L 22.306,10.565 L 22.241,10.611 L 22.185,10.659 L 22.137,10.706 L 22.095,10.755 L 22.061,10.806 L 22.034,10.857 L 22.015,10.907 L 22.004,10.957 L 22.000,11.009 L 22.000,11.009 L 22.004,11.059 L 22.015,11.111 L 22.034,11.162 L 22.061,11.212 L 22.095,11.262 L 22.137,11.311 L 22.185,11.358 L 22.241,11.407 L 22.306,11.452 L 22.375,11.498 L 22.451,11.543 L 22.534,11.584 L 22.624,11.625 L 22.718,11.666 L 22.820,11.704 L 22.927,11.739 L 23.040,11.773 L 23.158,11.806 L 23.278,11.835 L 23.404,11.864 L 23.535,11.891 L 23.669,11.912 L 23.806,11.935 L 23.946,11.953 L 24.089,11.970 L 24.235,11.985 L 24.382,11.996 L 24.530,12.005 L 24.681,12.011 L 24.831,12.014 L 24.982,12.017 L 24.982,12.017 L 25.133,12.014 L 25.285,12.011 L 25.434,12.005 L 25.583,11.996 L 25.730,11.985 L 25.877,11.970 L 26.019,11.953 L 26.158,11.935 L 26.296,11.912 L 26.430,11.891 L 26.561,11.864 L 26.687,11.835 L 26.808,11.806 L 26.924,11.773 L 27.037,11.739 L 27.144,11.704 L 27.247,11.666 L 27.341,11.625 L 27.431,11.584 L 27.513,11.543 L 27.590,11.498 L 27.660,11.452 L 27.723,11.407 L 27.780,11.358 L 27.827,11.311 L 27.870,11.262 L 27.905,11.212 L 27.931,11.162 L 27.950,11.111 L 27.961,11.059 L 27.965,11.009 "/>
<path stroke="#000000" fill="none" stroke-width="0.001"  d="M 22.000,11.009 L 22.000,13.168 "/>
<path stroke="#000000" fill="none" stroke-width="0.001"  d="M 27.965,11.009 L 27.965,13.168 "/>
<text x="14.000" y="9.000"  fill="#000000" text-anchor="end" font-size="0.80" font-family="sans" font-style="normal" font-weight="400">
Log</text>
<text x="14.000" y="9.800"  fill="#000000" text-anchor="end" font-size="0.80" font-family="sans" font-style="normal" font-weight="400">
everything</text>
<text x="25.000" y="16.000"  fill="#000000" text-anchor="middle" font-size="0.80" font-family="sans" font-style="normal" font-weight="400">
Authenticate</text>
<text x="25.000" y="16.800"  fill="#000000" text-anchor="middle" font-size="0.80" font-family="sans" font-style="normal" font-weight="400">
Group membership</text>
<text x="25.000" y="17.600"  fill="#000000" text-anchor="middle" font-size="0.80" font-family="sans" font-style="normal" font-weight="400">
Kerberos</text>
<path stroke="#000000" fill="none" stroke-width="0.100"  d ="M 14.983,5.435 A 2001.002,2001.002 0 0,0 15.030,15.001 "/>
<polyline fill="none" stroke="#000000" stroke-width="0.100"  points="15.234,5.823 14.983,5.324 14.734,5.824 "/>
<path stroke="#000000" fill="none" stroke-width="0.100"  d ="M 4.580,5.425 A 11.032,11.032 0 0,0 13.526,16.952 "/>
<polyline fill="none" stroke="#000000" stroke-width="0.100"  points="4.795,5.832 4.587,5.313 4.297,5.791 "/>
<path stroke="#000000" fill="none" stroke-width="0.100"  d ="M 16.375,16.050 A 29.065,29.065 0 0,0 24.126,5.382 "/>
<polyline fill="none" stroke="#000000" stroke-width="0.100"  points="24.209,5.836 24.169,5.279 23.747,5.646 "/>
<path stroke="#000000" fill="none" stroke-width="0.100"  d ="M 16.375,16.811 A 21.402,21.402 0 0,0 22.553,13.984 "/>
<polyline fill="none" stroke="#000000" stroke-width="0.100"  points="22.374,14.411 22.646,13.922 22.092,13.998 "/>
<text x="7.000" y="15.000"  fill="#000000" text-anchor="middle" font-size="0.80" font-family="sans" font-style="normal" font-weight="400">
Get</text>
<text x="7.000" y="15.800"  fill="#000000" text-anchor="middle" font-size="0.80" font-family="sans" font-style="normal" font-weight="400">
configuration</text>
<path stroke="none" fill="#A5A585" stroke-width="0.001" d="M 38.000,4.186 L 37.996,4.134 L 37.984,4.082 L 37.965,4.030 L 37.938,3.980 L 37.904,3.929 L 37.862,3.879 L 37.813,3.830 L 37.757,3.781 L 37.693,3.734 L 37.622,3.689 L 37.545,3.644 L 37.463,3.599 L 37.372,3.558 L 37.276,3.517 L 37.174,3.479 L 37.066,3.442 L 36.954,3.408 L 36.836,3.375 L 36.714,3.345 L 36.586,3.316 L 36.456,3.289 L 36.321,3.265 L 36.182,3.242 L 36.042,3.223 L 35.898,3.207 L 35.751,3.193 L 35.604,3.181 L 35.454,3.173 L 35.303,3.165 L 35.152,3.160 L 35.000,3.160 L 35.000,3.160 L 34.848,3.160 L 34.696,3.165 L 34.545,3.173 L 34.395,3.181 L 34.248,3.193 L 34.101,3.207 L 33.958,3.223 L 33.817,3.242 L 33.679,3.265 L 33.543,3.289 L 33.413,3.316 L 33.286,3.345 L 33.164,3.375 L 33.046,3.408 L 32.933,3.442 L 32.825,3.479 L 32.724,3.517 L 32.628,3.558 L 32.537,3.599 L 32.454,3.644 L 32.377,3.689 L 32.306,3.734 L 32.242,3.781 L 32.186,3.830 L 32.137,3.879 L 32.095,3.929 L 32.061,3.980 L 32.034,4.030 L 32.015,4.082 L 32.004,4.134 L 32.000,4.186 L 32.000,4.186 L 32.004,4.238 L 32.015,4.289 L 32.034,4.342 L 32.061,4.392 L 32.095,4.443 L 32.137,4.493 L 32.186,4.542 L 32.242,4.591 L 32.306,4.637 L 32.377,4.683 L 32.454,4.728 L 32.537,4.773 L 32.628,4.814 L 32.724,4.854 L 32.825,4.893 L 32.933,4.930 L 33.046,4.964 L 33.164,4.997 L 33.286,5.027 L 33.413,5.056 L 33.543,5.083 L 33.679,5.107 L 33.817,5.129 L 33.958,5.149 L 34.101,5.165 L 34.248,5.179 L 34.395,5.190 L 34.545,5.199 L 34.696,5.206 L 34.848,5.211 L 35.000,5.212 L 35.000,5.212 L 35.152,5.211 L 35.303,5.206 L 35.454,5.199 L 35.604,5.190 L 35.751,5.179 L 35.898,5.165 L 36.042,5.149 L 36.182,5.129 L 36.321,5.107 L 36.456,5.083 L 36.586,5.056 L 36.714,5.027 L 36.836,4.997 L 36.954,4.964 L 37.066,4.930 L 37.174,4.893 L 37.276,4.854 L 37.372,4.814 L 37.463,4.773 L 37.545,4.728 L 37.622,4.683 L 37.693,4.637 L 37.757,4.591 L 37.813,4.542 L 37.862,4.493 L 37.904,4.443 L 37.938,4.392 L 37.965,4.342 L 37.984,4.289 L 37.996,4.238 L 38.000,4.186 "/>
<path stroke="#494936" fill="none" stroke-width="0.001"  d="M 37.965,4.170 L 37.961,4.117 L 37.950,4.067 L 37.931,4.016 L 37.905,3.966 L 37.870,3.916 L 37.827,3.867 L 37.780,3.818 L 37.723,3.772 L 37.660,3.726 L 37.590,3.680 L 37.513,3.636 L 37.431,3.593 L 37.341,3.552 L 37.247,3.511 L 37.144,3.474 L 37.037,3.438 L 36.924,3.404 L 36.808,3.372 L 36.687,3.342 L 36.561,3.313 L 36.430,3.288 L 36.296,3.264 L 36.158,3.242 L 36.019,3.223 L 35.877,3.207 L 35.730,3.194 L 35.583,3.181 L 35.434,3.173 L 35.285,3.167 L 35.133,3.163 L 34.982,3.160 L 34.982,3.160 L 34.831,3.163 L 34.681,3.167 L 34.530,3.173 L 34.382,3.181 L 34.235,3.194 L 34.089,3.207 L 33.946,3.223 L 33.806,3.242 L 33.669,3.264 L 33.535,3.288 L 33.404,3.313 L 33.278,3.342 L 33.158,3.372 L 33.040,3.404 L 32.927,3.438 L 32.820,3.474 L 32.718,3.511 L 32.624,3.552 L 32.534,3.593 L 32.451,3.636 L 32.375,3.680 L 32.306,3.726 L 32.241,3.772 L 32.185,3.818 L 32.137,3.867 L 32.095,3.916 L 32.061,3.966 L 32.034,4.016 L 32.015,4.067 L 32.004,4.117 L 32.000,4.170 L 32.000,4.170 L 32.004,4.220 L 32.015,4.270 L 32.034,4.322 L 32.061,4.372 L 32.095,4.422 L 32.137,4.471 L 32.185,4.519 L 32.241,4.566 L 32.306,4.612 L 32.375,4.659 L 32.451,4.703 L 32.534,4.745 L 32.624,4.786 L 32.718,4.827 L 32.820,4.864 L 32.927,4.900 L 33.040,4.934 L 33.158,4.967 L 33.278,4.996 L 33.404,5.025 L 33.535,5.051 L 33.669,5.074 L 33.806,5.095 L 33.946,5.114 L 34.089,5.131 L 34.235,5.144 L 34.382,5.157 L 34.530,5.165 L 34.681,5.171 L 34.831,5.176 L 34.982,5.177 L 34.982,5.177 L 35.133,5.176 L 35.285,5.171 L 35.434,5.165 L 35.583,5.157 L 35.730,5.144 L 35.877,5.131 L 36.019,5.114 L 36.158,5.095 L 36.296,5.074 L 36.430,5.051 L 36.561,5.025 L 36.687,4.996 L 36.808,4.967 L 36.924,4.934 L 37.037,4.900 L 37.144,4.864 L 37.247,4.827 L 37.341,4.786 L 37.431,4.745 L 37.513,4.703 L 37.590,4.659 L 37.660,4.612 L 37.723,4.566 L 37.780,4.519 L 37.827,4.471 L 37.870,4.422 L 37.905,4.372 L 37.931,4.322 L 37.950,4.270 L 37.961,4.220 L 37.965,4.170 "/>
<path stroke="none" fill="#A5A585" stroke-width="0.001" d="M 32.000,2.044 L 32.000,4.204 L 37.965,4.204 L 37.965,2.044 L 32.000,2.044 "/>
<path stroke="none" fill="#C9C9B6" stroke-width="0.001" d="M 38.000,2.026 L 37.996,1.972 L 37.984,1.921 L 37.965,1.870 L 37.938,1.819 L 37.904,1.768 L 37.862,1.718 L 37.813,1.668 L 37.757,1.621 L 37.693,1.574 L 37.622,1.527 L 37.545,1.483 L 37.463,1.439 L 37.372,1.397 L 37.276,1.357 L 37.174,1.319 L 37.066,1.281 L 36.954,1.247 L 36.836,1.215 L 36.714,1.184 L 36.586,1.155 L 36.456,1.129 L 36.321,1.105 L 36.182,1.083 L 36.042,1.063 L 35.898,1.047 L 35.751,1.033 L 35.604,1.021 L 35.454,1.012 L 35.303,1.005 L 35.152,1.001 L 35.000,1.000 L 35.000,1.000 L 34.848,1.001 L 34.696,1.005 L 34.545,1.012 L 34.395,1.021 L 34.248,1.033 L 34.101,1.047 L 33.958,1.063 L 33.817,1.083 L 33.679,1.105 L 33.543,1.129 L 33.413,1.155 L 33.286,1.184 L 33.164,1.215 L 33.046,1.247 L 32.933,1.281 L 32.825,1.319 L 32.724,1.357 L 32.628,1.397 L 32.537,1.439 L 32.454,1.483 L 32.377,1.527 L 32.306,1.574 L 32.242,1.621 L 32.186,1.668 L 32.137,1.718 L 32.095,1.768 L 32.061,1.819 L 32.034,1.870 L 32.015,1.921 L 32.004,1.972 L 32.000,2.026 L 32.000,2.026 L 32.004,2.077 L 32.015,2.130 L 32.034,2.180 L 32.061,2.232 L 32.095,2.282 L 32.137,2.333 L 32.186,2.382 L 32.242,2.430 L 32.306,2.477 L 32.377,2.523 L 32.454,2.568 L 32.537,2.611 L 32.628,2.653 L 32.724,2.693 L 32.825,2.733 L 32.933,2.769 L 33.046,2.804 L 33.164,2.837 L 33.286,2.867 L 33.413,2.896 L 33.543,2.923 L 33.679,2.946 L 33.817,2.969 L 33.958,2.987 L 34.101,3.004 L 34.248,3.019 L 34.395,3.029 L 34.545,3.039 L 34.696,3.046 L 34.848,3.050 L 35.000,3.051 L 35.000,3.051 L 35.152,3.050 L 35.303,3.046 L 35.454,3.039 L 35.604,3.029 L 35.751,3.019 L 35.898,3.004 L 36.042,2.987 L 36.182,2.969 L 36.321,2.946 L 36.456,2.923 L 36.586,2.896 L 36.714,2.867 L 36.836,2.837 L 36.954,2.804 L 37.066,2.769 L 37.174,2.733 L 37.276,2.693 L 37.372,2.653 L 37.463,2.611 L 37.545,2.568 L 37.622,2.523 L 37.693,2.477 L 37.757,2.430 L 37.813,2.382 L 37.862,2.333 L 37.904,2.282 L 37.938,2.232 L 37.965,2.180 L 37.984,2.130 L 37.996,2.077 L 38.000,2.026 "/>
<path stroke="#494936" fill="none" stroke-width="0.001"  d="M 37.965,2.009 L 37.961,1.957 L 37.950,1.907 L 37.931,1.857 L 37.905,1.806 L 37.870,1.755 L 37.827,1.706 L 37.780,1.659 L 37.723,1.611 L 37.660,1.565 L 37.590,1.519 L 37.513,1.476 L 37.431,1.433 L 37.341,1.391 L 37.247,1.352 L 37.144,1.314 L 37.037,1.279 L 36.924,1.244 L 36.808,1.211 L 36.687,1.181 L 36.561,1.153 L 36.430,1.128 L 36.296,1.104 L 36.158,1.083 L 36.019,1.063 L 35.877,1.047 L 35.730,1.033 L 35.583,1.021 L 35.434,1.012 L 35.384,1.010 L 34.580,1.010 L 34.530,1.012 L 34.382,1.021 L 34.235,1.033 L 34.089,1.047 L 33.946,1.063 L 33.806,1.083 L 33.669,1.104 L 33.535,1.128 L 33.404,1.153 L 33.278,1.181 L 33.158,1.211 L 33.040,1.244 L 32.927,1.279 L 32.820,1.314 L 32.718,1.352 L 32.624,1.391 L 32.534,1.433 L 32.451,1.476 L 32.375,1.519 L 32.306,1.565 L 32.241,1.611 L 32.185,1.659 L 32.137,1.706 L 32.095,1.755 L 32.061,1.806 L 32.034,1.857 L 32.015,1.907 L 32.004,1.957 L 32.000,2.009 L 32.000,2.009 L 32.004,2.059 L 32.015,2.111 L 32.034,2.162 L 32.061,2.212 L 32.095,2.262 L 32.137,2.311 L 32.185,2.358 L 32.241,2.407 L 32.306,2.452 L 32.375,2.498 L 32.451,2.543 L 32.534,2.584 L 32.624,2.625 L 32.718,2.666 L 32.820,2.704 L 32.927,2.739 L 33.040,2.773 L 33.158,2.806 L 33.278,2.835 L 33.404,2.864 L 33.535,2.891 L 33.669,2.912 L 33.806,2.935 L 33.946,2.953 L 34.089,2.970 L 34.235,2.985 L 34.382,2.996 L 34.530,3.005 L 34.681,3.011 L 34.831,3.014 L 34.982,3.017 L 34.982,3.017 L 35.133,3.014 L 35.285,3.011 L 35.434,3.005 L 35.583,2.996 L 35.730,2.985 L 35.877,2.970 L 36.019,2.953 L 36.158,2.935 L 36.296,2.912 L 36.430,2.891 L 36.561,2.864 L 36.687,2.835 L 36.808,2.806 L 36.924,2.773 L 37.037,2.739 L 37.144,2.704 L 37.247,2.666 L 37.341,2.625 L 37.431,2.584 L 37.513,2.543 L 37.590,2.498 L 37.660,2.452 L 37.723,2.407 L 37.780,2.358 L 37.827,2.311 L 37.870,2.262 L 37.905,2.212 L 37.931,2.162 L 37.950,2.111 L 37.961,2.059 L 37.965,2.009 "/>
<path stroke="#000000" fill="none" stroke-width="0.001"  d="M 32.000,2.009 L 32.000,4.168 "/>
<path stroke="#000000" fill="none" stroke-width="0.001"  d="M 37.965,2.009 L 37.965,4.168 "/>
<path stroke="none" fill="#C9C9B6" stroke-width="0.001" d="M 34.117,16.889 L 36.773,16.889 L 35.656,18.009 L 33.000,18.009 L 34.117,16.889 "/>
<path stroke="#494936" fill="none" stroke-width="0.001"  d="M 34.117,16.889 L 36.773,16.889 L 35.656,18.009 L 33.000,18.009 L 34.117,16.889 "/>
<path stroke="#DBDBCE" fill="none" stroke-width="0.001"  d="M 34.219,17.820 L 34.219,17.826 L 34.220,17.831 L 34.222,17.837 L 34.224,17.844 L 34.227,17.849 L 34.231,17.855 L 34.236,17.860 L 34.241,17.865 L 34.245,17.871 L 34.252,17.877 L 34.258,17.882 L 34.265,17.886 L 34.274,17.891 L 34.281,17.895 L 34.291,17.899 L 34.300,17.904 L 34.309,17.908 L 34.320,17.912 L 34.331,17.915 L 34.341,17.918 L 34.353,17.921 L 34.364,17.925 L 34.376,17.926 L 34.389,17.928 L 34.402,17.930 L 34.415,17.932 L 34.427,17.933 L 34.440,17.935 L 34.454,17.936 L 34.467,17.936 L 34.480,17.936 "/>
<path stroke="#DBDBCE" fill="none" stroke-width="0.001"  d="M 34.451,17.936 L 34.464,17.936 L 34.476,17.936 L 34.489,17.934 L 34.502,17.933 L 34.515,17.932 L 34.527,17.930 L 34.539,17.928 L 34.551,17.926 L 34.563,17.923 L 34.575,17.920 L 34.585,17.917 L 34.596,17.913 L 34.606,17.910 L 34.616,17.906 L 34.625,17.902 L 34.634,17.898 L 34.642,17.893 L 34.650,17.888 L 34.658,17.883 L 34.664,17.878 L 34.670,17.872 L 34.675,17.867 L 34.680,17.861 L 34.685,17.855 L 34.688,17.850 L 34.692,17.844 L 34.693,17.837 L 34.695,17.831 L 34.697,17.826 L 34.697,17.820 "/>
<path stroke="#DBDBCE" fill="none" stroke-width="0.001"  d="M 34.508,17.603 L 34.495,17.603 L 34.482,17.603 L 34.468,17.603 L 34.456,17.604 L 34.443,17.606 L 34.430,17.607 L 34.418,17.608 L 34.405,17.611 L 34.393,17.613 L 34.382,17.614 L 34.371,17.617 L 34.359,17.620 L 34.349,17.623 L 34.339,17.626 L 34.329,17.631 L 34.319,17.634 L 34.311,17.638 L 34.302,17.641 L 34.294,17.645 L 34.288,17.650 L 34.281,17.655 L 34.275,17.658 L 34.269,17.663 L 34.264,17.668 L 34.260,17.674 L 34.256,17.678 L 34.254,17.683 L 34.251,17.688 L 34.249,17.693 L 34.249,17.699 L 34.248,17.703 "/>
<path stroke="#DBDBCE" fill="none" stroke-width="0.001"  d="M 34.725,17.703 L 34.725,17.698 L 34.725,17.693 L 34.723,17.688 L 34.721,17.682 L 34.718,17.677 L 34.713,17.671 L 34.709,17.667 L 34.705,17.662 L 34.698,17.658 L 34.693,17.652 L 34.687,17.648 L 34.678,17.644 L 34.671,17.639 L 34.663,17.636 L 34.654,17.632 L 34.645,17.627 L 34.634,17.624 L 34.624,17.621 L 34.614,17.618 L 34.603,17.616 L 34.591,17.613 L 34.580,17.611 L 34.568,17.609 L 34.556,17.607 L 34.544,17.606 L 34.532,17.604 L 34.519,17.603 L 34.505,17.603 L 34.492,17.603 L 34.480,17.603 "/>
<path stroke="none" fill="#A5A585" stroke-width="0.001" d="M 33.000,18.125 L 35.656,18.125 L 35.656,18.009 L 33.000,18.009 L 33.000,18.125 "/>
<path stroke="#494936" fill="none" stroke-width="0.001"  d="M 33.000,18.125 L 35.656,18.125 L 35.656,18.009 L 33.000,18.009 L 33.000,18.125 "/>
<path stroke="none" fill="#A5A585" stroke-width="0.001" d="M 34.117,16.889 L 36.773,16.889 L 36.773,15.072 L 34.117,15.072 L 34.117,16.889 "/>
<path stroke="#494936" fill="none" stroke-width="0.001"  d="M 34.117,16.889 L 36.773,16.889 L 36.773,15.072 L 34.117,15.072 L 34.117,16.889 "/>
<path stroke="none" fill="#7A7A5A" stroke-width="0.001" d="M 36.846,16.817 L 36.846,15.000 L 36.773,15.072 L 36.773,16.889 L 36.846,16.817 "/>
<path stroke="#494936" fill="none" stroke-width="0.001"  d="M 36.846,16.817 L 36.846,15.000 L 36.773,15.072 L 36.773,16.889 L 36.846,16.817 "/>
<path stroke="none" fill="#FFFFFF" stroke-width="0.001" d="M 34.248,16.773 L 36.643,16.773 L 36.643,15.218 L 34.248,15.218 L 34.248,16.773 "/>
<path stroke="#494936" fill="none" stroke-width="0.001"  d="M 34.248,16.773 L 36.643,16.773 L 36.643,15.218 L 34.248,15.218 L 34.248,16.773 "/>
<path stroke="none" fill="#93936C" stroke-width="0.001" d="M 34.248,16.977 L 36.482,16.977 L 35.902,17.559 L 33.668,17.559 L 34.248,16.977 "/>
<path stroke="#494936" fill="none" stroke-width="0.001"  d="M 34.248,16.977 L 36.482,16.977 L 35.902,17.559 L 33.668,17.559 L 34.248,16.977 "/>
<path stroke="none" fill="#7A7A5A" stroke-width="0.001" d="M 34.596,17.783 L 34.596,17.780 L 34.595,17.777 L 34.595,17.773 L 34.593,17.770 L 34.593,17.766 L 34.590,17.764 L 34.589,17.760 L 34.587,17.758 L 34.584,17.755 L 34.582,17.752 L 34.580,17.749 L 34.576,17.746 L 34.573,17.743 L 34.569,17.740 L 34.566,17.739 L 34.562,17.736 L 34.558,17.734 L 34.553,17.732 L 34.549,17.729 L 34.544,17.728 L 34.539,17.726 L 34.535,17.725 L 34.530,17.723 L 34.525,17.722 L 34.519,17.721 L 34.514,17.720 L 34.508,17.719 L 34.504,17.719 L 34.498,17.719 L 34.492,17.719 L 34.487,17.719 L 34.487,17.719 L 34.481,17.719 L 34.475,17.719 L 34.470,17.719 L 34.465,17.719 L 34.460,17.720 L 34.454,17.721 L 34.449,17.722 L 34.444,17.723 L 34.439,17.725 L 34.434,17.726 L 34.430,17.728 L 34.424,17.729 L 34.421,17.732 L 34.416,17.734 L 34.412,17.736 L 34.408,17.739 L 34.405,17.740 L 34.401,17.743 L 34.398,17.746 L 34.395,17.749 L 34.391,17.752 L 34.390,17.755 L 34.386,17.758 L 34.385,17.760 L 34.383,17.764 L 34.382,17.766 L 34.380,17.770 L 34.380,17.773 L 34.379,17.777 L 34.378,17.780 L 34.378,17.783 L 34.378,17.783 L 34.378,17.787 L 34.379,17.790 L 34.380,17.793 L 34.380,17.797 L 34.382,17.800 L 34.383,17.803 L 34.385,17.806 L 34.386,17.809 L 34.390,17.812 L 34.391,17.815 L 34.395,17.818 L 34.398,17.821 L 34.401,17.824 L 34.405,17.826 L 34.408,17.828 L 34.412,17.831 L 34.416,17.833 L 34.421,17.835 L 34.424,17.837 L 34.430,17.838 L 34.434,17.841 L 34.439,17.842 L 34.444,17.843 L 34.449,17.844 L 34.454,17.846 L 34.460,17.847 L 34.465,17.848 L 34.470,17.848 L 34.475,17.848 L 34.481,17.848 L 34.487,17.848 L 34.487,17.848 L 34.492,17.848 L 34.498,17.848 L 34.504,17.848 L 34.508,17.848 L 34.514,17.847 L 34.519,17.846 L 34.525,17.844 L 34.530,17.843 L 34.535,17.842 L 34.539,17.841 L 34.544,17.838 L 34.549,17.837 L 34.553,17.835 L 34.558,17.833 L 34.562,17.831 L 34.566,17.828 L 34.569,17.826 L 34.573,17.824 L 34.576,17.821 L 34.580,17.818 L 34.582,17.815 L 34.584,17.812 L 34.587,17.809 L 34.589,17.806 L 34.590,17.803 L 34.593,17.800 L 34.593,17.797 L 34.595,17.793 L 34.595,17.790 L 34.596,17.787 L 34.596,17.783 "/>
<path stroke="#DBDBCE" fill="none" stroke-width="0.001"  d="M 34.582,17.777 L 34.582,17.773 L 34.581,17.770 L 34.581,17.767 L 34.580,17.765 L 34.578,17.761 L 34.578,17.759 L 34.575,17.756 L 34.573,17.753 L 34.571,17.751 L 34.569,17.748 L 34.566,17.746 L 34.563,17.742 L 34.560,17.740 L 34.557,17.739 L 34.554,17.736 L 34.550,17.734 L 34.546,17.733 L 34.543,17.730 L 34.539,17.729 L 34.534,17.727 L 34.530,17.726 L 34.525,17.725 L 34.520,17.723 L 34.516,17.722 L 34.511,17.721 L 34.505,17.720 L 34.501,17.719 L 34.495,17.719 L 34.491,17.719 L 34.485,17.719 L 34.480,17.719 L 34.480,17.719 L 34.475,17.719 L 34.470,17.719 L 34.465,17.719 L 34.460,17.719 L 34.455,17.720 L 34.450,17.721 L 34.444,17.722 L 34.440,17.723 L 34.436,17.725 L 34.431,17.726 L 34.427,17.727 L 34.421,17.729 L 34.418,17.730 L 34.414,17.733 L 34.410,17.734 L 34.406,17.736 L 34.403,17.739 L 34.400,17.740 L 34.397,17.742 L 34.394,17.746 L 34.391,17.748 L 34.389,17.751 L 34.386,17.753 L 34.385,17.756 L 34.383,17.759 L 34.382,17.761 L 34.381,17.765 L 34.380,17.767 L 34.379,17.770 L 34.379,17.773 L 34.379,17.777 L 34.379,17.777 L 34.379,17.779 L 34.379,17.783 L 34.380,17.786 L 34.381,17.787 L 34.382,17.791 L 34.383,17.794 L 34.385,17.797 L 34.386,17.799 L 34.389,17.803 L 34.391,17.804 L 34.394,17.807 L 34.397,17.810 L 34.400,17.812 L 34.403,17.814 L 34.406,17.817 L 34.410,17.818 L 34.414,17.821 L 34.418,17.823 L 34.421,17.824 L 34.427,17.826 L 34.431,17.828 L 34.436,17.828 L 34.440,17.830 L 34.444,17.831 L 34.450,17.831 L 34.455,17.833 L 34.460,17.834 L 34.465,17.834 L 34.470,17.834 L 34.475,17.834 L 34.480,17.834 L 34.480,17.834 L 34.485,17.834 L 34.491,17.834 L 34.495,17.834 L 34.501,17.834 L 34.505,17.833 L 34.511,17.831 L 34.516,17.831 L 34.520,17.830 L 34.525,17.828 L 34.530,17.828 L 34.534,17.826 L 34.539,17.824 L 34.543,17.823 L 34.546,17.821 L 34.550,17.818 L 34.554,17.817 L 34.557,17.814 L 34.560,17.812 L 34.563,17.810 L 34.566,17.807 L 34.569,17.804 L 34.571,17.803 L 34.573,17.799 L 34.575,17.797 L 34.578,17.794 L 34.578,17.791 L 34.580,17.787 L 34.581,17.786 L 34.581,17.783 L 34.582,17.779 L 34.582,17.777 "/>
<path stroke="#626248" fill="none" stroke-width="0.001"  d="M 34.234,17.834 L 34.234,17.841 L 34.235,17.846 L 34.237,17.851 L 34.239,17.858 L 34.242,17.863 L 34.245,17.868 L 34.250,17.874 L 34.255,17.880 L 34.261,17.885 L 34.266,17.891 L 34.273,17.895 L 34.280,17.901 L 34.288,17.905 L 34.296,17.910 L 34.305,17.913 L 34.314,17.918 L 34.325,17.922 L 34.334,17.926 L 34.346,17.929 L 34.357,17.932 L 34.368,17.936 L 34.379,17.939 L 34.391,17.940 L 34.403,17.943 L 34.416,17.945 L 34.429,17.946 L 34.441,17.948 L 34.454,17.949 L 34.468,17.950 L 34.481,17.950 L 34.494,17.950 "/>
<path stroke="#626248" fill="none" stroke-width="0.001"  d="M 34.465,17.950 L 34.478,17.950 L 34.491,17.950 L 34.504,17.949 L 34.516,17.947 L 34.529,17.946 L 34.542,17.945 L 34.553,17.943 L 34.565,17.940 L 34.576,17.937 L 34.588,17.935 L 34.600,17.932 L 34.610,17.928 L 34.620,17.925 L 34.630,17.920 L 34.640,17.916 L 34.648,17.912 L 34.657,17.907 L 34.664,17.902 L 34.671,17.898 L 34.678,17.892 L 34.684,17.887 L 34.690,17.882 L 34.695,17.875 L 34.698,17.869 L 34.703,17.864 L 34.705,17.858 L 34.708,17.852 L 34.710,17.846 L 34.710,17.841 L 34.711,17.834 "/>
<path stroke="#626248" fill="none" stroke-width="0.001"  d="M 34.523,17.617 L 34.510,17.617 L 34.497,17.617 L 34.484,17.617 L 34.471,17.618 L 34.457,17.620 L 34.444,17.620 L 34.433,17.623 L 34.420,17.624 L 34.408,17.627 L 34.397,17.629 L 34.385,17.632 L 34.374,17.634 L 34.364,17.638 L 34.354,17.641 L 34.344,17.644 L 34.334,17.648 L 34.326,17.651 L 34.317,17.655 L 34.309,17.660 L 34.302,17.664 L 34.296,17.668 L 34.289,17.674 L 34.283,17.677 L 34.279,17.682 L 34.275,17.688 L 34.271,17.692 L 34.268,17.697 L 34.265,17.702 L 34.264,17.707 L 34.263,17.713 L 34.263,17.718 "/>
<path stroke="#626248" fill="none" stroke-width="0.001"  d="M 34.741,17.718 L 34.740,17.712 L 34.739,17.707 L 34.738,17.702 L 34.735,17.696 L 34.732,17.691 L 34.728,17.686 L 34.724,17.682 L 34.719,17.677 L 34.713,17.671 L 34.707,17.667 L 34.700,17.662 L 34.693,17.658 L 34.685,17.654 L 34.677,17.650 L 34.668,17.646 L 34.659,17.642 L 34.649,17.639 L 34.639,17.636 L 34.628,17.633 L 34.617,17.631 L 34.606,17.627 L 34.595,17.625 L 34.583,17.623 L 34.570,17.621 L 34.558,17.620 L 34.546,17.618 L 34.533,17.617 L 34.519,17.617 L 34.507,17.617 L 34.494,17.617 "/>
<path stroke="none" fill="#7A7A5A" stroke-width="0.001" d="M 36.773,16.991 L 35.656,18.111 L 35.656,18.009 L 36.773,16.889 L 36.773,16.991 "/>
<path stroke="#494936" fill="none" stroke-width="0.001"  d="M 36.773,16.991 L 35.656,18.111 L 35.656,18.009 L 36.773,16.889 L 36.773,16.991 "/>
<path stroke="none" fill="#7A7A5A" stroke-width="0.001" d="M 36.396,16.803 L 36.396,16.831 L 36.614,16.831 L 36.614,16.803 L 36.396,16.803 "/>
<path stroke="#494936" fill="none" stroke-width="0.001"  d="M 36.396,16.803 L 36.396,16.831 L 36.614,16.831 L 36.614,16.803 L 36.396,16.803 "/>
<path stroke="#000000" fill="none" stroke-width="0.001"  d="M 36.336,17.122 L 34.117,17.122 "/>
<path stroke="#000000" fill="none" stroke-width="0.001"  d="M 36.192,17.268 L 33.973,17.268 "/>
<path stroke="#000000" fill="none" stroke-width="0.001"  d="M 36.047,17.413 L 33.827,17.413 "/>
<path stroke="none" fill="#C9C9B6" stroke-width="0.001" d="M 34.190,15.000 L 36.846,15.000 L 36.773,15.072 L 34.117,15.072 L 34.190,15.000 "/>
<path stroke="#494936" fill="none" stroke-width="0.001"  d="M 34.190,15.000 L 36.846,15.000 L 36.773,15.072 L 34.117,15.072 L 34.190,15.000 "/>
<path stroke="#000000" fill="none" stroke-width="0.100"  d ="M 35.483,15.002 A 70.833,70.833 0 0,0 35.236,5.431 "/>
<polyline fill="none" stroke="#000000" stroke-width="0.100"  points="35.522,5.793 35.225,5.320 35.025,5.842 "/>
<text x="5.000" y="2.213"  fill="#000000" text-anchor="middle" font-size="0.80" font-family="sans" font-style="normal" font-weight="400">
Puppet</text>
<text x="25.000" y="11.213"  fill="#000000" text-anchor="middle" font-size="0.80" font-family="sans" font-style="normal" font-weight="400">
Samba4</text>
<text x="15.000" y="2.213"  fill="#000000" text-anchor="middle" font-size="0.80" font-family="sans" font-style="normal" font-weight="400">
Syslog</text>
<text x="25.000" y="2.213"  fill="#000000" text-anchor="middle" font-size="0.80" font-family="sans" font-style="normal" font-weight="400">
Owncloud</text>
<text x="35.000" y="2.213"  fill="#000000" text-anchor="middle" font-size="0.80" font-family="sans" font-style="normal" font-weight="400">
X11rdp</text>
<text x="36.000" y="12.223"  fill="#000000" text-anchor="start" font-size="0.80" font-family="sans" font-style="normal" font-weight="400">
rdesktop</text>
<path stroke="#000000" fill="none" stroke-width="0.100"  d ="M 34.988,15.031 A 20.615,20.615 0 0,0 27.739,4.850 "/>
<polyline fill="none" stroke="#000000" stroke-width="0.100"  points="28.200,4.877 27.649,4.782 27.904,5.280 "/>
<text x="32.000" y="13.000"  fill="#000000" text-anchor="middle" font-size="0.80" font-family="sans" font-style="normal" font-weight="400">
OwnCloud</text>
<text x="32.000" y="13.800"  fill="#000000" text-anchor="middle" font-size="0.80" font-family="sans" font-style="normal" font-weight="400">
sync</text>
<line x1="32.945" y1="4.931" x2="27.184" y2="10.116" stroke="#000000" stroke-width="0.100" />
<polyline fill="none" stroke="#000000" stroke-width="0.100"  points="27.305,9.670 27.100,10.191 27.639,10.042 "/>
<line x1="24.978" y1="5.211" x2="24.978" y2="9.776" stroke="#000000" stroke-width="0.100" />
<polyline fill="none" stroke="#000000" stroke-width="0.100"  points="24.728,9.388 24.978,9.888 25.228,9.388 "/>
<text x="20.000" y="9.000"  fill="#000000" text-anchor="middle" font-size="0.80" font-family="sans" font-style="normal" font-weight="400">
OwnCloud</text>
<text x="20.000" y="9.800"  fill="#000000" text-anchor="middle" font-size="0.80" font-family="sans" font-style="normal" font-weight="400">
sync</text>
<line x1="31.999" y1="3.101" x2="28.189" y2="3.101" stroke="#000000" stroke-width="0.100" />
<polyline fill="none" stroke="#000000" stroke-width="0.100"  points="28.577,2.851 28.077,3.101 28.577,3.351 "/>
</svg>